<svg width="146" height="161" viewBox="0 0 146 161" fill="none" xmlns="http://www.w3.org/2000/svg">
<path d="M140.331 0H62.9467C60.0378 0 57.6797 2.35606 57.6797 5.2624V152.736C57.6797 155.642 60.0378 157.998 62.9467 157.998H140.331C143.24 157.998 145.598 155.642 145.598 152.736V5.2624C145.598 2.35606 143.24 0 140.331 0Z" fill="#BB258E"/>
<path opacity="0.4" d="M140.331 0H62.9467C60.0378 0 57.6797 2.35606 57.6797 5.2624V152.736C57.6797 155.642 60.0378 157.998 62.9467 157.998H140.331C143.24 157.998 145.598 155.642 145.598 152.736V5.2624C145.598 2.35606 143.24 0 140.331 0Z" fill="#BB258E"/>
<path d="M142.635 5.29385V152.423C142.635 153.633 141.663 154.574 140.452 154.574H62.597C61.4828 154.574 60.6472 153.714 60.6472 152.601V5.11675C60.6472 4.15535 61.3562 3.31033 62.3184 3.31033H81.781C82.333 3.31033 82.8294 3.66959 83.0319 4.18571L83.8372 6.16923C84.0398 6.68029 84.5411 7.03449 85.0881 7.03449H118.225C118.777 7.03449 119.273 6.69547 119.476 6.18441L120.281 4.19077C120.483 3.67465 120.985 3.31033 121.532 3.31033H140.716C141.779 3.31033 142.625 4.23125 142.625 5.29385H142.635Z" fill="white"/>
<path opacity="0.3" d="M142.635 12.5057H60.6472V144.825H142.635V12.5057Z" fill="white"/>
<path opacity="0.6" d="M69.6863 9.24184H70.6992V7.89082H69.6863V9.24184Z" fill="white"/>
<path opacity="0.6" d="M68.0342 9.24184H69.0471V7.44554H68.0342V9.24184Z" fill="white"/>
<path opacity="0.6" d="M66.3884 9.24184H67.4013V6.9952H66.3884V9.24184Z" fill="white"/>
<path opacity="0.6" d="M64.7364 9.24184H65.7493V6.54486H64.7364V9.24184Z" fill="white"/>
<path opacity="0.6" d="M133.36 7.39874H132.758V8.74976H133.36V7.39874Z" fill="white"/>
<path opacity="0.6" d="M133.768 9.23781H138.549V6.90515H133.768V9.23781Z" fill="white"/>
<path d="M140.609 15.0929H62.667V28.4361H140.609V15.0929Z" fill="#BB258E"/>
<path d="M136.249 20.088C136.579 20.088 136.846 19.8207 136.846 19.4909C136.846 19.1612 136.579 18.8939 136.249 18.8939C135.919 18.8939 135.651 19.1612 135.651 19.4909C135.651 19.8207 135.919 20.088 136.249 20.088Z" fill="white"/>
<path d="M136.249 22.3635C136.579 22.3635 136.846 22.0962 136.846 21.7664C136.846 21.4366 136.579 21.1693 136.249 21.1693C135.919 21.1693 135.651 21.4366 135.651 21.7664C135.651 22.0962 135.919 22.3635 136.249 22.3635Z" fill="white"/>
<path d="M136.249 24.639C136.579 24.639 136.846 24.3716 136.846 24.0419C136.846 23.7121 136.579 23.4448 136.249 23.4448C135.919 23.4448 135.651 23.7121 135.651 24.0419C135.651 24.3716 135.919 24.639 136.249 24.639Z" fill="white"/>
<path d="M127.658 22.9533C128.723 22.9533 129.587 22.0901 129.587 21.0254C129.587 19.9607 128.723 19.0975 127.658 19.0975C126.592 19.0975 125.728 19.9607 125.728 21.0254C125.728 22.0901 126.592 22.9533 127.658 22.9533Z" stroke="white" stroke-linecap="round" stroke-linejoin="round"/>
<path d="M129.02 22.3892L131.076 24.4435" stroke="white" stroke-linecap="round" stroke-linejoin="round"/>
<path d="M121.845 18.8581H117.753V24.6771H121.845V18.8581Z" stroke="white" stroke-linecap="round" stroke-linejoin="round"/>
<path d="M123.369 19.0452L120.583 21.6865" stroke="white" stroke-linecap="round" stroke-linejoin="round"/>
<path d="M74.8215 18.8581H67.1135V24.6771H74.8215V18.8581Z" stroke="white" stroke-linecap="round" stroke-linejoin="round"/>
<path d="M67.1135 18.8581L70.9675 21.7676L74.8215 18.8581" stroke="white" stroke-linecap="round" stroke-linejoin="round"/>
<path opacity="0.6" d="M140.609 29.5873H62.667V142.952H140.609V29.5873Z" fill="white"/>
<path d="M64.7305 45.0231H138.55" stroke="#263238" stroke-linecap="round" stroke-linejoin="round"/>
<path opacity="0.3" d="M75.53 37.6549C75.53 39.2589 74.6893 40.6706 73.4181 41.4701C72.7243 41.9053 71.8988 42.1583 71.0176 42.1583C70.1364 42.1583 69.3159 41.9053 68.6221 41.4701C67.3509 40.6706 66.5103 39.2589 66.5103 37.6549C66.5103 35.1654 68.531 33.1464 71.0176 33.1464C73.5042 33.1464 75.53 35.1654 75.53 37.6549Z" fill="black"/>
<path d="M71.8793 38.7859C72.3756 38.4924 72.7099 37.956 72.7099 37.3438C72.7099 36.4127 71.9553 35.6588 71.0234 35.6588C70.0915 35.6588 69.3369 36.4127 69.3369 37.3438C69.3369 37.9611 69.6712 38.4924 70.1675 38.7859H70.1624C69.2458 39.1299 68.5925 40.0205 68.5925 41.0578C68.5925 41.1995 68.6026 41.3412 68.6279 41.4727C69.3217 41.9079 70.1422 42.1609 71.0234 42.1609C71.9046 42.1609 72.7301 41.9079 73.4239 41.4727C73.4493 41.3412 73.4594 41.1995 73.4594 41.0578C73.4594 40.0205 72.8061 39.1299 71.8843 38.7859H71.8793Z" fill="white"/>
<path opacity="0.3" d="M92.5797 36.6698H79.6249C79.2906 36.6698 79.0222 36.4016 79.0222 36.0677C79.0222 35.7337 79.2906 35.4655 79.6249 35.4655H92.5797C92.9139 35.4655 93.1824 35.7337 93.1824 36.0677C93.1824 36.4016 92.9139 36.6698 92.5797 36.6698Z" fill="black"/>
<path opacity="0.3" d="M107.773 39.2632H79.6249C79.2906 39.2632 79.0222 38.995 79.0222 38.6611C79.0222 38.3271 79.2906 38.0589 79.6249 38.0589H107.773C108.107 38.0589 108.376 38.3271 108.376 38.6611C108.376 38.995 108.107 39.2632 107.773 39.2632Z" fill="black"/>
<path d="M64.7305 59.798H138.55" stroke="#263238" stroke-linecap="round" stroke-linejoin="round"/>
<path opacity="0.3" d="M75.53 52.4314C75.53 54.0354 74.6893 55.4471 73.4181 56.2466C72.7243 56.6818 71.8988 56.9348 71.0176 56.9348C70.1364 56.9348 69.3159 56.6818 68.6221 56.2466C67.3509 55.4471 66.5103 54.0354 66.5103 52.4314C66.5103 49.9418 68.531 47.9229 71.0176 47.9229C73.5042 47.9229 75.53 49.9418 75.53 52.4314Z" fill="black"/>
<path d="M71.8793 53.5624C72.3756 53.2689 72.7099 52.7325 72.7099 52.1203C72.7099 51.1892 71.9553 50.4353 71.0234 50.4353C70.0915 50.4353 69.3369 51.1892 69.3369 52.1203C69.3369 52.7376 69.6712 53.2689 70.1675 53.5624H70.1624C69.2458 53.9064 68.5925 54.797 68.5925 55.8343C68.5925 55.976 68.6026 56.1177 68.6279 56.2492C69.3217 56.6844 70.1422 56.9374 71.0234 56.9374C71.9046 56.9374 72.7301 56.6844 73.4239 56.2492C73.4493 56.1177 73.4594 55.976 73.4594 55.8343C73.4594 54.797 72.8061 53.9064 71.8843 53.5624H71.8793Z" fill="white"/>
<path opacity="0.3" d="M92.5797 51.4463H79.6249C79.2906 51.4463 79.0222 51.1781 79.0222 50.8442C79.0222 50.5102 79.2906 50.242 79.6249 50.242H92.5797C92.9139 50.242 93.1824 50.5102 93.1824 50.8442C93.1824 51.1781 92.9139 51.4463 92.5797 51.4463Z" fill="black"/>
<path opacity="0.3" d="M107.773 54.0459H79.6249C79.2906 54.0459 79.0222 53.7778 79.0222 53.4438C79.0222 53.1098 79.2906 52.8417 79.6249 52.8417H107.773C108.107 52.8417 108.376 53.1098 108.376 53.4438C108.376 53.7778 108.107 54.0459 107.773 54.0459Z" fill="black"/>
<path d="M64.7305 74.5792H138.55" stroke="#263238" stroke-linecap="round" stroke-linejoin="round"/>
<path opacity="0.3" d="M75.53 67.2125C75.53 68.8165 74.6893 70.2283 73.4181 71.0277C72.7243 71.4629 71.8988 71.7159 71.0176 71.7159C70.1364 71.7159 69.3159 71.4629 68.6221 71.0277C67.3509 70.2283 66.5103 68.8165 66.5103 67.2125C66.5103 64.723 68.531 62.704 71.0176 62.704C73.5042 62.704 75.53 64.723 75.53 67.2125Z" fill="black"/>
<path d="M71.8793 68.3435C72.3756 68.05 72.7099 67.5136 72.7099 66.9014C72.7099 65.9703 71.9553 65.2164 71.0234 65.2164C70.0915 65.2164 69.3369 65.9703 69.3369 66.9014C69.3369 67.5187 69.6712 68.05 70.1675 68.3435H70.1624C69.2458 68.6876 68.5925 69.5781 68.5925 70.6154C68.5925 70.7571 68.6026 70.8988 68.6279 71.0303C69.3217 71.4655 70.1422 71.7185 71.0234 71.7185C71.9046 71.7185 72.7301 71.4655 73.4239 71.0303C73.4493 70.8988 73.4594 70.7571 73.4594 70.6154C73.4594 69.5781 72.8061 68.6876 71.8843 68.3435H71.8793Z" fill="white"/>
<path opacity="0.3" d="M92.5797 66.2212H79.6249C79.2906 66.2212 79.0222 65.953 79.0222 65.619C79.0222 65.2851 79.2906 65.0169 79.6249 65.0169H92.5797C92.9139 65.0169 93.1824 65.2851 93.1824 65.619C93.1824 65.953 92.9139 66.2212 92.5797 66.2212Z" fill="black"/>
<path opacity="0.3" d="M107.773 68.8208H79.6249C79.2906 68.8208 79.0222 68.5526 79.0222 68.2187C79.0222 67.8847 79.2906 67.6165 79.6249 67.6165H107.773C108.107 67.6165 108.376 67.8847 108.376 68.2187C108.376 68.5526 108.107 68.8208 107.773 68.8208Z" fill="black"/>
<path d="M64.7305 89.3542H138.55" stroke="#263238" stroke-linecap="round" stroke-linejoin="round"/>
<path opacity="0.3" d="M75.53 81.989C75.53 83.593 74.6893 85.0047 73.4181 85.8042C72.7243 86.2394 71.8988 86.4924 71.0176 86.4924C70.1364 86.4924 69.3159 86.2394 68.6221 85.8042C67.3509 85.0047 66.5103 83.593 66.5103 81.989C66.5103 79.4994 68.531 77.4805 71.0176 77.4805C73.5042 77.4805 75.53 79.4994 75.53 81.989Z" fill="black"/>
<path d="M71.8793 83.1199C72.3756 82.8265 72.7099 82.2901 72.7099 81.6778C72.7099 80.7468 71.9553 79.9929 71.0234 79.9929C70.0915 79.9929 69.3369 80.7468 69.3369 81.6778C69.3369 82.2952 69.6712 82.8265 70.1675 83.1199H70.1624C69.2458 83.464 68.5925 84.3546 68.5925 85.3919C68.5925 85.5336 68.6026 85.6752 68.6279 85.8068C69.3217 86.242 70.1422 86.495 71.0234 86.495C71.9046 86.495 72.7301 86.242 73.4239 85.8068C73.4493 85.6752 73.4594 85.5336 73.4594 85.3919C73.4594 84.3546 72.8061 83.464 71.8843 83.1199H71.8793Z" fill="white"/>
<path opacity="0.3" d="M92.5797 81.0039H79.6249C79.2906 81.0039 79.0222 80.7357 79.0222 80.4017C79.0222 80.0678 79.2906 79.7996 79.6249 79.7996H92.5797C92.9139 79.7996 93.1824 80.0678 93.1824 80.4017C93.1824 80.7357 92.9139 81.0039 92.5797 81.0039Z" fill="black"/>
<path opacity="0.3" d="M107.773 83.5973H79.6249C79.2906 83.5973 79.0222 83.3291 79.0222 82.9952C79.0222 82.6612 79.2906 82.393 79.6249 82.393H107.773C108.107 82.393 108.376 82.6612 108.376 82.9952C108.376 83.3291 108.107 83.5973 107.773 83.5973Z" fill="black"/>
<path d="M64.7305 104.129H138.55" stroke="#263238" stroke-linecap="round" stroke-linejoin="round"/>
<path opacity="0.3" d="M75.53 96.7701C75.53 98.3741 74.6893 99.7858 73.4181 100.585C72.7243 101.02 71.8988 101.273 71.0176 101.273C70.1364 101.273 69.3159 101.02 68.6221 100.585C67.3509 99.7858 66.5103 98.3741 66.5103 96.7701C66.5103 94.2806 68.531 92.2616 71.0176 92.2616C73.5042 92.2616 75.53 94.2806 75.53 96.7701Z" fill="black"/>
<path d="M71.8793 97.9011C72.3756 97.6076 72.7099 97.0712 72.7099 96.459C72.7099 95.5279 71.9553 94.774 71.0234 94.774C70.0915 94.774 69.3369 95.5279 69.3369 96.459C69.3369 97.0763 69.6712 97.6076 70.1675 97.9011H70.1624C69.2458 98.2452 68.5925 99.1357 68.5925 100.173C68.5925 100.315 68.6026 100.456 68.6279 100.588C69.3217 101.023 70.1422 101.276 71.0234 101.276C71.9046 101.276 72.7301 101.023 73.4239 100.588C73.4493 100.456 73.4594 100.315 73.4594 100.173C73.4594 99.1357 72.8061 98.2452 71.8843 97.9011H71.8793Z" fill="white"/>
<path opacity="0.3" d="M92.5797 95.7788H79.6249C79.2906 95.7788 79.0222 95.5106 79.0222 95.1766C79.0222 94.8427 79.2906 94.5745 79.6249 94.5745H92.5797C92.9139 94.5745 93.1824 94.8427 93.1824 95.1766C93.1824 95.5106 92.9139 95.7788 92.5797 95.7788Z" fill="black"/>
<path opacity="0.3" d="M107.773 98.3784H79.6249C79.2906 98.3784 79.0222 98.1102 79.0222 97.7763C79.0222 97.4423 79.2906 97.1741 79.6249 97.1741H107.773C108.107 97.1741 108.376 97.4423 108.376 97.7763C108.376 98.1102 108.107 98.3784 107.773 98.3784Z" fill="black"/>
<path d="M64.7305 118.91H138.55" stroke="#263238" stroke-linecap="round" stroke-linejoin="round"/>
<path opacity="0.3" d="M75.53 111.547C75.53 113.151 74.6893 114.562 73.4181 115.362C72.7243 115.797 71.8988 116.05 71.0176 116.05C70.1364 116.05 69.3159 115.797 68.6221 115.362C67.3509 114.562 66.5103 113.151 66.5103 111.547C66.5103 109.057 68.531 107.038 71.0176 107.038C73.5042 107.038 75.53 109.057 75.53 111.547Z" fill="black"/>
<path d="M71.8793 112.678C72.3756 112.384 72.7099 111.848 72.7099 111.235C72.7099 110.304 71.9553 109.55 71.0234 109.55C70.0915 109.55 69.3369 110.304 69.3369 111.235C69.3369 111.853 69.6712 112.384 70.1675 112.678H70.1624C69.2458 113.022 68.5925 113.912 68.5925 114.949C68.5925 115.091 68.6026 115.233 68.6279 115.364C69.3217 115.8 70.1422 116.053 71.0234 116.053C71.9046 116.053 72.7301 115.8 73.4239 115.364C73.4493 115.233 73.4594 115.091 73.4594 114.949C73.4594 113.912 72.8061 113.022 71.8843 112.678H71.8793Z" fill="white"/>
<path opacity="0.3" d="M92.5797 110.561H79.6249C79.2906 110.561 79.0222 110.293 79.0222 109.959C79.0222 109.625 79.2906 109.357 79.6249 109.357H92.5797C92.9139 109.357 93.1824 109.625 93.1824 109.959C93.1824 110.293 92.9139 110.561 92.5797 110.561Z" fill="black"/>
<path opacity="0.3" d="M107.773 113.155H79.6249C79.2906 113.155 79.0222 112.887 79.0222 112.553C79.0222 112.219 79.2906 111.951 79.6249 111.951H107.773C108.107 111.951 108.376 112.219 108.376 112.553C108.376 112.887 108.107 113.155 107.773 113.155Z" fill="black"/>
<path d="M64.7305 133.685H138.55" stroke="#263238" stroke-linecap="round" stroke-linejoin="round"/>
<path opacity="0.3" d="M75.53 126.315C75.53 127.919 74.6893 129.331 73.4181 130.13C72.7243 130.566 71.8988 130.819 71.0176 130.819C70.1364 130.819 69.3159 130.566 68.6221 130.13C67.3509 129.331 66.5103 127.919 66.5103 126.315C66.5103 123.826 68.531 121.807 71.0176 121.807C73.5042 121.807 75.53 123.826 75.53 126.315Z" fill="black"/>
<path d="M71.8793 127.446C72.3756 127.153 72.7099 126.616 72.7099 126.004C72.7099 125.073 71.9553 124.319 71.0234 124.319C70.0915 124.319 69.3369 125.073 69.3369 126.004C69.3369 126.621 69.6712 127.153 70.1675 127.446H70.1624C69.2458 127.79 68.5925 128.681 68.5925 129.718C68.5925 129.86 68.6026 130.001 68.6279 130.133C69.3217 130.568 70.1422 130.821 71.0234 130.821C71.9046 130.821 72.7301 130.568 73.4239 130.133C73.4493 130.001 73.4594 129.86 73.4594 129.718C73.4594 128.681 72.8061 127.79 71.8843 127.446H71.8793Z" fill="white"/>
<path opacity="0.3" d="M92.5797 125.33H79.6249C79.2906 125.33 79.0222 125.062 79.0222 124.728C79.0222 124.394 79.2906 124.126 79.6249 124.126H92.5797C92.9139 124.126 93.1824 124.394 93.1824 124.728C93.1824 125.062 92.9139 125.33 92.5797 125.33Z" fill="black"/>
<path opacity="0.3" d="M107.773 127.93H79.6249C79.2906 127.93 79.0222 127.662 79.0222 127.328C79.0222 126.994 79.2906 126.725 79.6249 126.725H107.773C108.107 126.725 108.376 126.994 108.376 127.328C108.376 127.662 108.107 127.93 107.773 127.93Z" fill="black"/>
<path d="M74.8158 25.7737C76.1024 25.7737 77.1454 24.7316 77.1454 23.4461C77.1454 22.1606 76.1024 21.1185 74.8158 21.1185C73.5292 21.1185 72.4861 22.1606 72.4861 23.4461C72.4861 24.7316 73.5292 25.7737 74.8158 25.7737Z" fill="white"/>
<path d="M75.7202 23.5249C75.7202 24.3041 75.2543 24.7393 74.5655 24.7393C74.3275 24.7393 74.0996 24.6836 73.9375 24.5824L74.13 24.1979C74.2515 24.2839 74.3984 24.3092 74.5554 24.3092C74.9302 24.3092 75.1733 24.0865 75.1935 23.6514C75.0618 23.7829 74.8694 23.8538 74.6314 23.8538C74.1958 23.8538 73.8514 23.5755 73.8514 23.1504C73.8514 22.69 74.2313 22.3965 74.7073 22.3965C75.3353 22.3965 75.7202 22.7861 75.7202 23.5148V23.5249ZM75.1378 23.1302C75.1378 22.9379 74.9909 22.7962 74.7428 22.7962C74.5199 22.7962 74.3629 22.9278 74.3629 23.1302C74.3629 23.3326 74.5149 23.4692 74.7478 23.4692C74.9808 23.4692 75.1378 23.3275 75.1378 23.1302Z" fill="#263238"/>
<path d="M102.285 147.475H100.998C100.456 147.475 100.016 147.915 100.016 148.457V149.742C100.016 150.284 100.456 150.724 100.998 150.724H102.285C102.827 150.724 103.267 150.284 103.267 149.742V148.457C103.267 147.915 102.827 147.475 102.285 147.475Z" stroke="white" stroke-miterlimit="10"/>
<path opacity="0.6" d="M101.632 3.49959C101.632 4.12197 101.131 4.62291 100.508 4.62291C99.8852 4.62291 99.3839 4.12197 99.3839 3.49959C99.3839 2.87721 99.8852 2.37627 100.508 2.37627C101.131 2.37627 101.632 2.87721 101.632 3.49959Z" fill="black"/>
<path opacity="0.6" d="M103.908 3.50001C103.908 3.89975 103.584 4.21853 103.189 4.21853C102.794 4.21853 102.47 3.89469 102.47 3.50001C102.47 3.10533 102.794 2.78149 103.189 2.78149C103.584 2.78149 103.908 3.10533 103.908 3.50001Z" fill="black"/>
<path d="M9.58936 160.516H10.4149L15.7528 112.907L13.9853 113.165L9.58936 160.516Z" fill="#263238"/>
<path d="M39.7523 113.165L37.9797 112.907L43.3176 160.516H44.1431L39.7523 113.165Z" fill="#263238"/>
<g opacity="0.1">
<path d="M13.3725 119.744L9.58936 160.522H10.4149L14.988 119.744H13.3725Z" fill="white"/>
<path d="M38.7527 119.744L43.3209 160.522H44.1464L40.3632 119.744H38.7527Z" fill="white"/>
</g>
<path d="M44.1423 160.518L34.6718 132.465L39.7514 113.166L37.984 112.908L33.8463 130.011L28.0729 112.908L26.8675 113.085L25.6622 112.908L19.8888 130.011L15.7511 112.908L13.9836 113.166L19.0633 132.465L9.59277 160.518H10.4183L19.671 134.772L26.4472 160.518H27.298L34.0742 134.772L43.3269 160.518H44.1524H44.1423ZM26.8625 158.853L20.4864 132.49L26.8625 114.745L33.2386 132.49L26.8625 158.853Z" fill="#263238"/>
<path d="M14.4263 108.494H39.3028C40.3258 108.494 41.1563 109.324 41.1563 110.346V113.696H12.5727V110.346C12.5727 109.324 13.4033 108.494 14.4263 108.494Z" fill="#263238"/>
<path d="M41.5391 111.699H12.1806C11.8841 111.699 11.6438 111.939 11.6438 112.235V114.097C11.6438 114.393 11.8841 114.634 12.1806 114.634H41.5391C41.8356 114.634 42.076 114.393 42.076 114.097V112.235C42.076 111.939 41.8356 111.699 41.5391 111.699Z" fill="#263238"/>
<path opacity="0.5" d="M41.5391 111.699H12.1806C11.8841 111.699 11.6438 111.939 11.6438 112.235V114.097C11.6438 114.393 11.8841 114.634 12.1806 114.634H41.5391C41.8356 114.634 42.076 114.393 42.076 114.097V112.235C42.076 111.939 41.8356 111.699 41.5391 111.699Z" fill="white"/>
<path opacity="0.3" d="M38.8932 116.407C38.2956 116.417 37.7031 116.433 37.1207 116.443L33.8389 130.014L29.286 116.534C28.6783 116.534 28.0857 116.534 27.5033 116.534L33.2363 132.488L26.8602 158.851L20.484 132.488L26.217 116.529C25.6092 116.529 25.0167 116.524 24.4394 116.519L19.8814 130.009L16.5642 116.306C15.9362 116.276 15.3386 116.24 14.7714 116.2L19.0508 132.463L9.58032 160.515H10.4058L19.6585 134.77L26.4347 160.515H27.2856L34.0618 134.77L43.3145 160.515H44.14L34.6695 132.463L38.8932 116.407Z" fill="white"/>
<path d="M65.5452 42.6586C65.0135 42.4106 60.9265 43.8173 60.3643 44.2069C59.8022 44.5965 59.6806 45.897 59.6806 45.897L55.2644 51.1644C50.7622 57.0694 36.05 58.0612 36.05 58.0612L36.5463 62.848C36.5463 62.848 52.3423 60.5102 56.6622 54.1498L61.4734 47.415C61.8684 47.4504 65.6161 46.6408 66.2948 46.1145C66.9734 45.5883 66.0719 42.9116 65.5402 42.6636L65.5452 42.6586Z" fill="#EEC1BB"/>
<path d="M21.6583 64.3199C21.6583 64.3199 17.8043 74.5714 14.9024 76.0236C11.023 77.9616 4.26202 67.5937 4.26202 67.5937L6.24728 66.4653C6.24728 66.4653 11.7726 72.2944 13.3679 71.6265C14.9581 70.9586 16.8573 63.4141 16.8573 63.4141L21.6583 64.3249V64.3199Z" fill="#EEC1BB"/>
<path d="M16.9679 62.0177C16.9679 62.0177 21.3081 63.1916 22.1437 66.8955L18.9835 71.8998L13.7317 70.3009C13.7317 70.3009 15.7169 62.4933 16.9729 62.0227L16.9679 62.0177Z" fill="#BB258E"/>
<path d="M38.2778 56.8773C39.8022 56.4523 43.089 56.5181 43.089 56.766C43.089 57.014 41.6051 62.6559 41.6051 62.6559L37.3965 65.6564L38.2778 56.8723V56.8773Z" fill="#BB258E"/>
<path d="M17.5024 47.9121C17.5024 47.9121 16.758 54.9101 19.356 56.6305C21.949 58.3509 34.7164 56.337 36.1649 53.5186C37.6133 50.7053 32.164 43.0596 32.164 43.0596L17.5075 47.9121H17.5024Z" fill="#263238"/>
<path d="M71.8875 139.934L68.5602 140.733L66.8738 136.144L65.3443 131.964L69.1325 130.35L70.591 135.42L71.8875 139.934Z" fill="#EEC1BB"/>
<path opacity="0.2" d="M70.591 135.42L66.8738 136.144L65.3443 131.964L69.1325 130.35L70.591 135.42Z" fill="black"/>
<path d="M70.2592 132.994L65.6404 134.709C65.6404 134.709 53.3187 103.929 50.7865 103.823C48.2543 103.717 22.4712 115.557 16.009 108.989C9.54683 102.427 18.8907 86.6041 18.8907 86.6041C18.8907 86.6041 34.4334 84.3878 35.6033 87.8944C35.8312 88.5724 36.0794 89.9032 36.2617 91.0417C36.4389 92.1144 36.5605 93.0151 36.5605 93.0151C36.5605 93.0151 36.5656 93.0151 36.5706 93.01C37.0517 92.8886 52.6552 88.8659 58.8035 93.0151C65.0479 97.2351 70.2592 132.994 70.2592 132.994Z" fill="#1C468A"/>
<path d="M43.6937 153.067L40.3765 152.217L41.0146 147.461L41.6071 143.099L45.7093 143.468L44.6407 148.549L43.6937 153.067Z" fill="#EEC1BB"/>
<path opacity="0.2" d="M44.6136 148.653L40.9874 147.55L41.5901 143.143L45.7024 143.487L44.6136 148.653Z" fill="black"/>
<path d="M63.7358 132.999L70.4614 130.712L70.7501 133.47L65.6451 135.271L63.7358 132.999Z" fill="#263238"/>
<path d="M27.165 110.564C27.165 110.564 28.2184 110.589 44.5208 109.83C44.5208 109.83 42.0848 130.197 40.7529 145.437L45.6299 146.267C45.6299 146.267 57.2781 113.625 57.1515 108.439C57.0249 103.252 51.0742 101.734 51.0742 101.734C51.0742 101.734 39.4615 108.439 27.165 110.564Z" fill="#1C468A"/>
<path opacity="0.2" d="M27.165 110.564C27.165 110.564 28.2184 110.589 44.5208 109.83C44.5208 109.83 42.0848 130.197 40.7529 145.437L45.6299 146.267C45.6299 146.267 57.2781 113.625 57.1515 108.439C57.0249 103.252 51.0742 101.734 51.0742 101.734C51.0742 101.734 39.4615 108.439 27.165 110.564Z" fill="#052A66"/>
<path d="M40.0488 143.966L46.749 144.725L45.4576 147.351L40.0336 146.653L40.0488 143.966Z" fill="#263238"/>
<path opacity="0.2" d="M36.5562 93.0111L27.4655 94.9035C27.4655 94.9035 32.4894 92.1306 36.2574 91.0377C36.4346 92.1104 36.5562 93.0111 36.5562 93.0111Z" fill="black"/>
<path d="M19.2678 84.1896L18.893 86.6083L35.6056 87.8936L36.0462 85.0397L19.2678 84.1896Z" fill="black"/>
<path d="M24.9621 84.0314L24.1359 83.9465L23.7034 88.1495L24.5296 88.2343L24.9621 84.0314Z" fill="#407BFF"/>
<path d="M32.1278 85.0357L28.4687 84.8006L28.2902 87.5728L31.9493 87.8079L32.1278 85.0357Z" fill="white"/>
<path d="M35.2298 84.4865L34.4036 84.4016L33.9711 88.6045L34.7973 88.6894L35.2298 84.4865Z" fill="#407BFF"/>
<path d="M77.4016 146.395C76.8951 146.162 76.3482 146.026 75.7961 145.985C75.7961 145.985 73.8717 144.852 71.9674 140.46L69.8252 140.45C69.0807 140.46 68.4274 140.93 68.1792 141.629C68.1438 141.725 68.1235 141.826 68.1185 141.927C68.1387 142.443 68.1944 142.959 68.2856 143.47C68.478 145.074 69.5365 148.51 69.5365 148.51L69.9012 148.419L69.2428 145.221C69.025 144.133 70.1645 145.186 70.6963 146.279C71.228 147.372 72.0383 148.475 74.4085 147.933C77.1686 147.291 78.2777 146.891 77.4168 146.395H77.4016Z" fill="#407BFF"/>
<path d="M72.058 140.045C72.058 140.045 75.1964 145.642 77 146.725C77 146.725 74.5794 147.954 72.058 145.217C68.8009 141.675 68 142.661 68 142.661C68 142.661 68.1365 141.447 68.3916 140.855C68.884 139.711 72.058 140.045 72.058 140.045Z" fill="#EEC1BB"/>
<path d="M47.9203 159.734C47.4848 159.39 46.9885 159.127 46.4567 158.955C46.4567 158.955 44.8564 157.402 44.0461 152.681L41.9646 152.159C41.2404 151.993 40.4908 152.291 40.0857 152.913C40.03 152.999 39.9844 153.091 39.954 153.187C39.8527 153.693 39.7818 154.209 39.7464 154.725C39.5539 156.329 39.7666 159.916 39.7666 159.916H40.1414L40.2579 156.653C40.3034 155.545 41.1644 156.835 41.4176 158.024C41.6708 159.213 42.2026 160.478 44.6285 160.514C47.4595 160.539 48.6344 160.417 47.9153 159.734H47.9203Z" fill="#407BFF"/>
<path d="M43.9383 151.47C43.9383 151.47 45.2095 157.542 46.4502 158.954C46.4502 158.954 44.151 159.662 42.7127 156.49C40.849 152.386 39.9526 153.191 39.9526 153.191C39.9526 153.191 40.3527 152.042 40.7072 151.516C41.3858 150.504 43.9383 151.47 43.9383 151.47Z" fill="#EEC1BB"/>
<path d="M32.5814 44.9527C32.5814 44.9527 31.6394 33.846 22.3462 37.8839C10.6828 42.9489 19.9558 56.4743 25.6533 53.6964C31.3507 50.9184 32.5814 44.9527 32.5814 44.9527Z" fill="#263238"/>
<path d="M19.0316 63.1501C19.695 66.859 20.4091 73.9026 19.219 84.3515L36.1089 85.2926C36.1089 85.2926 39.1779 65.3663 38.2714 56.8807C38.2714 56.8807 37.532 56.9212 36.3621 57.2197C30.7557 58.6264 25.0329 59.3854 21.5638 59.7548C19.8875 59.9319 18.7328 61.4955 19.0265 63.1551L19.0316 63.1501Z" fill="#BB258E"/>
<path d="M31.2668 59.1512C31.1149 59.0753 30.9376 59.0096 30.7452 58.9488C30.3451 58.6554 29.8539 57.9318 29.8184 56.1355C29.8083 55.5485 29.8437 54.8553 29.9501 54.0255L24.9262 53.2462C24.9262 53.2462 26.7342 56.5555 25.387 59.0905C24.9059 59.3233 24.5767 59.6471 24.6881 60.0418C25.1895 61.7976 30.5527 63.7761 30.5527 63.7761C30.5527 63.7761 34.3308 60.7097 31.2668 59.1512Z" fill="#EEC1BB"/>
<path opacity="0.2" d="M29.9521 54.0255C29.8458 54.8553 29.8103 55.5485 29.8205 56.1355C26.4476 56.2367 24.9282 53.2462 24.9282 53.2462L29.9521 54.0255Z" fill="black"/>
<path d="M33.3668 53.1942C32.9464 53.1942 32.5362 53.0677 32.1766 52.8299C31.7006 52.5111 31.3764 52.0254 31.265 51.4637C31.103 50.6288 31.4473 49.7787 32.1412 49.293C32.2273 49.2322 32.3438 49.2525 32.4045 49.3385C32.4653 49.4245 32.445 49.5409 32.3589 49.6016C31.7867 50.0014 31.5031 50.7047 31.6347 51.3878C31.8221 52.3391 32.7489 52.9665 33.7061 52.7793C34.1669 52.6882 34.567 52.4251 34.8304 52.0304C35.0937 51.6408 35.1849 51.1702 35.0937 50.7047C34.9064 49.7484 33.9745 49.126 33.0224 49.3132C32.9211 49.3334 32.8198 49.2677 32.7995 49.1614C32.7793 49.0602 32.8451 48.959 32.9515 48.9388C33.5136 48.8275 34.0859 48.9388 34.562 49.2626C35.038 49.5814 35.3622 50.0671 35.4736 50.6288C35.585 51.1905 35.4736 51.7622 35.1494 52.2379C34.8304 52.7135 34.3442 53.0374 33.782 53.1487C33.6402 53.174 33.5035 53.1892 33.3617 53.1892L33.3668 53.1942Z" fill="#407BFF"/>
<g opacity="0.5">
<path d="M33.3693 53.196C32.9489 53.196 32.5387 53.0695 32.1791 52.8316C31.7031 52.5129 31.3789 52.0271 31.2675 51.4654C31.1055 50.6305 31.4498 49.7805 32.1437 49.2947C32.2298 49.234 32.3463 49.2542 32.407 49.3402C32.4678 49.4263 32.4475 49.5426 32.3614 49.6034C31.7892 50.0031 31.5056 50.7064 31.6372 51.3895C31.8246 52.3408 32.7514 52.9683 33.7086 52.781C34.1694 52.69 34.5695 52.4268 34.8329 52.0322C35.0962 51.6425 35.1874 51.172 35.0962 50.7064C34.9089 49.7501 33.977 49.1277 33.0249 49.3149C32.9236 49.3352 32.8223 49.2694 32.802 49.1631C32.7818 49.0619 32.8476 48.9607 32.954 48.9405C33.5161 48.8292 34.0884 48.9405 34.5645 49.2643C35.0405 49.5831 35.3647 50.0689 35.4761 50.6305C35.5875 51.1922 35.4761 51.764 35.1519 52.2396C34.8329 52.7153 34.3467 53.0391 33.7845 53.1504C33.6427 53.1757 33.506 53.1909 33.3642 53.1909L33.3693 53.196Z" fill="#1C468A"/>
</g>
<path d="M25.7709 40.339C29.9845 39.408 31.8431 41.3612 33.1143 45.6318C34.6995 50.9701 34.35 55.089 28.8247 55.094C21.3193 55.1041 18.7719 41.8824 25.7709 40.334V40.339Z" fill="#EEC1BB"/>
<path d="M30.3315 46.0025C30.3315 46.0025 31.157 46.974 31.947 47.48C31.947 47.48 31.7141 48.1327 30.9392 48.2036L30.3315 46.0075V46.0025Z" fill="#D4827D"/>
<path d="M27.6802 46.2233C27.7663 46.5674 27.6498 46.8912 27.4168 46.9469C27.1889 47.0025 26.9307 46.7698 26.8496 46.4257C26.7635 46.0816 26.88 45.7578 27.113 45.7021C27.3409 45.6464 27.5992 45.8792 27.6802 46.2233Z" fill="#263238"/>
<path d="M27.0145 45.7456L27.6932 45.27C27.6932 45.27 27.4754 45.9935 27.0145 45.7456Z" fill="#263238"/>
<path d="M31.9429 45.104C32.029 45.4481 31.9125 45.7719 31.6795 45.8276C31.4516 45.8832 31.1933 45.6505 31.1123 45.3064C31.0262 44.9623 31.1427 44.6385 31.3757 44.5828C31.6036 44.5271 31.8619 44.7599 31.9429 45.104Z" fill="#263238"/>
<path d="M31.2772 44.6263L31.9559 44.1507C31.9559 44.1507 31.7381 44.8742 31.2772 44.6263Z" fill="#263238"/>
<path d="M26.9932 43.328C26.9932 43.328 25.7727 43.4343 25.3068 44.3704" stroke="#263238" stroke-width="0.72" stroke-linecap="round" stroke-linejoin="round"/>
<path d="M30.0198 42.4716C30.0198 42.4716 30.7035 42.0314 31.7771 42.4463" stroke="#263238" stroke-width="0.72" stroke-linecap="round" stroke-linejoin="round"/>
<path d="M22.7389 48.4607C22.7389 48.4607 23.9443 44.5645 23.0529 41.9586C23.0529 41.9586 30.6496 36.7012 32.9387 45.0806C32.9387 45.0806 32.0879 37.3793 24.8052 38.8112C17.5327 40.2432 19.8978 50.8287 24.3393 53.1563C24.3393 53.1563 21.9995 50.8895 22.7389 48.4556V48.4607Z" fill="#263238"/>
<path d="M23.6223 49.1959C23.4451 48.5229 22.4879 47.5311 21.2572 47.946C19.981 48.3761 19.9557 51.1946 23.3438 51.1187C23.83 51.1085 23.992 50.5924 23.6223 49.1908V49.1959Z" fill="#EEC1BB"/>
<path d="M31.6932 49.8012C31.5463 50.3578 31.4754 51.3648 31.4754 51.3648C31.3842 51.3749 31.288 51.385 31.1969 51.3901C29.9409 51.4963 29.318 51.132 29.0141 50.6918C28.847 50.454 28.7811 50.1858 28.7507 49.9682C28.7153 49.7152 28.7507 49.528 28.7507 49.528C29.4496 49.8721 30.6347 49.862 31.2627 49.8265C31.526 49.8164 31.6932 49.7962 31.6932 49.7962V49.8012Z" fill="#263238"/>
<path d="M31.2689 49.8328L31.193 50.2932C30.0079 50.3894 29.1571 50.3034 28.757 49.9745C28.7215 49.7215 28.757 49.5342 28.757 49.5342C29.4559 49.8783 30.6409 49.8682 31.2689 49.8328Z" fill="white"/>
<path d="M31.1983 51.3924C29.9423 51.4986 29.3194 51.1343 29.0155 50.6941C29.446 50.6738 29.9676 50.6941 30.4386 50.8509C30.7982 50.9673 31.0362 51.1748 31.1983 51.3873V51.3924Z" fill="#DE5753"/>
<path d="M25.7555 40.6784C25.7555 40.6784 25.5935 47.985 21.2077 48.8604C16.8219 49.7358 21.6179 39.4741 21.6179 39.4741C21.6179 39.4741 28.151 35.2136 32.5013 38.2141C36.8568 41.2198 32.942 45.0806 32.942 45.0806C32.942 45.0806 32.0202 39.6562 25.7606 40.6784H25.7555Z" fill="#263238"/>
<path d="M25.603 40.1985C25.603 40.1985 27.1679 44.8183 24.0786 47.242" stroke="#263238" stroke-width="0.5" stroke-linecap="round" stroke-linejoin="round"/>
<path d="M22.7597 54.8856C22.3394 54.8856 21.9291 54.7591 21.5696 54.5213C21.0935 54.2025 20.7694 53.7168 20.658 53.1551C20.4959 52.3202 20.8403 51.4701 21.5341 50.9844C21.6202 50.9237 21.7367 50.9439 21.7975 51.0299C21.8582 51.1159 21.838 51.2323 21.7519 51.293C21.1796 51.6928 20.896 52.3961 21.0277 53.0792C21.2151 54.0305 22.1418 54.6579 23.099 54.4707C23.5599 54.3796 23.96 54.1165 24.2233 53.7218C24.4867 53.3322 24.5778 52.8616 24.4867 52.3961C24.2993 51.4398 23.3725 50.8174 22.4153 51.0046C22.314 51.0249 22.2128 50.9591 22.1925 50.8528C22.1722 50.7516 22.2381 50.6504 22.3444 50.6302C22.9066 50.5189 23.4789 50.6302 23.9549 50.954C24.431 51.2728 24.7551 51.7586 24.8665 52.3202C24.9779 52.8819 24.8665 53.4537 24.5424 53.9293C24.2233 54.4049 23.7371 54.7288 23.175 54.8401C23.0332 54.8654 22.8964 54.8806 22.7546 54.8806L22.7597 54.8856Z" fill="#1C468A"/>
<path d="M29.0505 58.3892C30.5192 58.1362 33.5325 57.3215 35.0012 58.3892C36.4699 59.4568 35.0569 63.2619 29.952 64.3954C24.847 65.5288 16.749 62.3258 16.749 62.3258C16.749 62.3258 17.929 60.4587 20.1523 59.8565C22.3756 59.2544 26.5335 58.8193 29.0455 58.3892H29.0505Z" fill="#EEC1BB"/>
<path d="M31.9715 69.8193C31.9411 69.8193 31.9107 69.8091 31.8854 69.7889C31.5613 69.5005 23.914 62.6948 23.9191 59.8156C23.9191 59.4412 24.0457 59.1427 24.2938 58.9251C24.3445 58.8795 24.4255 58.8846 24.4711 58.9352C24.5167 58.9858 24.5116 59.0668 24.461 59.1123C24.2685 59.2843 24.1723 59.512 24.1723 59.8106C24.1723 62.3811 30.913 68.5694 31.9259 69.4853C32.3817 68.4986 34.8177 62.9832 33.5415 59.9219C33.1718 59.0313 32.5083 58.4241 31.5765 58.1104C31.5106 58.0902 31.4752 58.0143 31.4955 57.9485C31.5157 57.8827 31.5917 57.8473 31.6575 57.8675C32.6653 58.2066 33.3744 58.8644 33.7745 59.8258C35.2178 63.2817 32.2095 69.4853 32.0779 69.7484C32.0627 69.7838 32.0272 69.8091 31.9867 69.8142C31.9766 69.8142 31.9715 69.8142 31.9614 69.8142L31.9715 69.8193Z" fill="#1C468A"/>
<path d="M31.4374 69.4214L32.349 69.3202L32.7643 71.8755L32.349 72.842L31.64 72.3006L31.4374 69.4214Z" fill="#1C468A"/>
<path d="M6.18963 67.0754C6.18963 67.0754 4.6703 68.3303 3.38393 67.6928C2.09757 67.0501 0.173085 64.6264 0.345276 63.9686C0.522531 63.3159 2.09757 61.2716 2.44701 61.4487C2.79646 61.6258 5.54138 64.8339 6.18456 65.3601C6.82775 65.8863 6.18456 67.0805 6.18456 67.0805L6.18963 67.0754Z" fill="#EEC1BB"/>
<path d="M6.57943 66.1438C6.57943 66.1438 6.53891 66.1388 6.51359 66.1337L3.52558 65.3697C3.24197 65.2988 3.00901 65.1015 2.89253 64.8333L0.0209942 58.2249C0.0209942 58.2249 0.0108653 58.1946 0.0058009 58.1845C-0.0296501 58.0225 0.102025 57.8657 0.274216 57.891L3.05459 58.2604C3.38378 58.3009 3.66738 58.5134 3.79906 58.822L6.7972 65.8048C6.8681 65.9667 6.74656 66.1388 6.57943 66.1438Z" fill="#263238"/>
<path opacity="0.2" d="M6.57985 66.1469C6.57985 66.1469 6.53934 66.1418 6.51402 66.1368L3.526 65.3727C3.2424 65.3019 3.00943 65.1045 2.89295 64.8364L0.0214189 58.228C0.0214189 58.228 0.01129 58.1977 0.00622559 58.1875H0.0416766L2.82205 58.5519C3.15124 58.5974 3.43484 58.8099 3.56652 59.1186L6.56466 66.1014C6.56466 66.1014 6.57479 66.1317 6.57985 66.1469Z" fill="white"/>
</svg>
