<svg width="28" height="28" viewBox="0 0 28 28" fill="none" xmlns="http://www.w3.org/2000/svg">
<path d="M11.8951 15.5477L12.7325 14.752C10.9249 12.7661 10.3994 11.46 10.29 10.7043C10.2727 10.585 10.2655 10.4792 10.2651 10.386L9.28127 9.4519C9.26863 9.48212 9.25681 9.51271 9.24583 9.54363L9.24563 9.54418C9.13364 9.85843 9.06522 10.2984 9.14881 10.8736L11.8951 15.5477ZM11.8951 15.5477C9.99503 13.4623 9.30526 11.9467 9.14883 10.8738L11.8951 15.5477ZM19.0598 16.9243C20.0135 16.1768 21.2807 16.004 22.4124 16.458L21.8286 17.4726C21.1704 17.2601 20.4708 17.3568 19.9096 17.7312L19.0598 16.9243ZM8.06734 19.6649L7.23166 20.4583C2.02814 14.8307 0.787679 9.94536 0.54182 7.30235L1.69501 7.24C1.92777 9.65434 3.08664 14.2725 8.06734 19.6649ZM1.68534 6.23906L0.514481 6.30237C0.583636 5.54942 0.89533 4.87255 1.32792 4.30885L2.17051 5.10882C1.92269 5.45592 1.75209 5.83753 1.68534 6.23906ZM2.83482 4.36061L1.99745 3.5656L3.56056 1.91682L4.39874 2.71406L2.83482 4.36061ZM17.2362 18.0368C17.3025 18.0476 17.3642 18.0546 17.4213 18.0585L18.4454 19.0298C18.416 19.0434 18.3861 19.0561 18.3559 19.068L18.355 19.0683C18.044 19.1911 17.6112 19.2669 17.0509 19.1763C16.0097 19.0065 14.5608 18.2716 12.5836 16.273L13.4212 15.477C15.3113 17.3833 16.5427 17.923 17.2357 18.0367L17.2362 18.0368ZM11.3363 5.03945C12.0014 6.30114 11.9251 7.84821 11.1149 8.99002L10.2652 8.18252C10.7018 7.46391 10.7557 6.52509 10.3829 5.71344L11.3363 5.03945ZM9.55261 2.46032L10.7857 4.20275L9.842 4.87006L8.60997 3.12669L9.55261 2.46032ZM8.94855 1.66271L7.99515 2.33668C7.17975 1.54835 5.99727 1.44664 5.12768 2.02403L4.27648 1.21659C5.68842 0.101517 7.70538 0.318035 8.94855 1.66271ZM22.7225 17.9257L23.2979 16.9256L25.1745 18.0058L24.5981 19.0069L22.7225 17.9257ZM25.4401 19.5487L26.0242 18.5341C27.6062 19.7563 27.9818 22.0988 26.8291 23.7155L25.9805 22.9083C26.6236 21.8548 26.4004 20.3892 25.4401 19.5487ZM22.7007 27.3547L22.5852 26.1813C22.8216 26.0941 23.0487 25.9625 23.2644 25.7931L24.1078 26.5938C23.7042 26.9372 23.2328 27.213 22.7007 27.3547ZM26.1657 24.4649L24.8156 25.8862L23.9793 25.0908L25.3291 23.6699L26.1657 24.4649ZM21.7085 27.4821C19.0424 27.6273 13.6462 27.0108 7.92097 21.1828L8.7567 20.3893C14.172 25.8932 19.1912 26.4506 21.5952 26.3321L21.7085 27.4821Z" stroke="#5F778F"/>
</svg>
