<svg width="65" height="78" viewBox="0 0 65 78" fill="none" xmlns="http://www.w3.org/2000/svg">
<g filter="url(#filter0_dd_2495_2376)">
<rect x="6" y="6" width="45" height="58" rx="6" fill="#FFF7FD"/>
</g>
<path d="M31.1152 23.5778C31.1162 24.0877 30.9616 24.5864 30.671 25.0106C30.3804 25.4347 29.9668 25.7653 29.4828 25.9603C28.9988 26.1553 28.4663 26.2059 27.9527 26.1057C27.4391 26.0055 26.9676 25.7591 26.5982 25.3976C26.3526 25.1584 26.1578 24.8745 26.0249 24.5621C25.892 24.2496 25.8237 23.9148 25.8238 23.5766C25.8238 23.2384 25.8923 22.9036 26.0253 22.5912C26.1583 22.2788 26.3532 21.995 26.5989 21.7559C26.8446 21.5168 27.1363 21.3272 27.4573 21.1979C27.7782 21.0685 28.1223 21.002 28.4697 21.002C28.817 21.0021 29.161 21.0688 29.482 21.1983C29.8029 21.3277 30.0945 21.5175 30.3401 21.7566C30.8362 22.2396 31.1166 22.8933 31.1166 23.5764M36.2923 26.1507C36.6448 26.1587 36.9955 26.098 37.3236 25.9722C37.6518 25.8464 37.9508 25.658 38.2031 25.4181C38.4553 25.1782 38.6558 24.8916 38.7926 24.5752C38.9295 24.2588 39 23.919 39 23.5757C39 23.2324 38.9295 22.8926 38.7926 22.5762C38.6558 22.2598 38.4553 21.9732 38.2031 21.7333C37.9508 21.4934 37.6518 21.305 37.3236 21.1792C36.9955 21.0534 36.6448 20.9927 36.2923 21.0007C35.5905 21.0007 34.9174 21.2721 34.4212 21.7551C33.925 22.2381 33.6462 22.8933 33.6462 23.5764C33.6462 24.2595 33.925 24.9147 34.4212 25.3977C34.9174 25.8807 35.5905 26.1507 36.2923 26.1507ZM23.2921 23.5778C23.2931 24.0877 23.1385 24.5864 22.8479 25.0106C22.5573 25.4347 22.1437 25.7653 21.6597 25.9603C21.1757 26.1553 20.6431 26.2059 20.1295 26.1057C19.616 26.0055 19.1445 25.7591 18.7751 25.3976C18.5295 25.1585 18.3347 24.8747 18.2018 24.5623C18.0688 24.25 18.0004 23.9152 18.0004 23.5771C18.0004 23.239 18.0688 22.9042 18.2018 22.5919C18.3347 22.2795 18.5295 21.9957 18.7751 21.7566C19.0207 21.5175 19.3123 21.3279 19.6332 21.1985C19.954 21.0691 20.298 21.0025 20.6453 21.0025C20.9926 21.0025 21.3366 21.0691 21.6575 21.1985C21.9783 21.3279 22.2699 21.5175 22.5155 21.7566C23.0117 22.2396 23.2906 22.8933 23.2906 23.5764M31.1152 31.1873C31.1185 31.5298 31.0515 31.8695 30.9182 32.1865C30.785 32.5034 30.588 32.7913 30.339 33.0333C30.09 33.2753 29.7939 33.4664 29.468 33.5956C29.1421 33.7248 28.793 33.7893 28.4412 33.7855C28.0894 33.7817 27.7419 33.7096 27.419 33.5734C27.0962 33.4372 26.8045 33.2396 26.5611 32.9923C26.3177 32.745 26.1274 32.4529 26.0014 32.1331C25.8754 31.8133 25.8163 31.4723 25.8274 31.1299C25.8493 30.4567 26.1414 29.8185 26.6411 29.3525C27.1408 28.8865 27.8082 28.6297 28.5002 28.6372C29.1922 28.6447 29.8535 28.9159 30.3424 29.3927C30.8313 29.8695 31.1087 30.5137 31.1152 31.1873ZM36.2923 33.7616C36.6448 33.7696 36.9955 33.7089 37.3236 33.5831C37.6518 33.4573 37.9508 33.2689 38.2031 33.029C38.4553 32.7891 38.6558 32.5026 38.7926 32.1862C38.9295 31.8698 39 31.5299 39 31.1866C39 30.8433 38.9295 30.5035 38.7926 30.1871C38.6558 29.8707 38.4553 29.5841 38.2031 29.3442C37.9508 29.1043 37.6518 28.9159 37.3236 28.7901C36.9955 28.6643 36.6448 28.6036 36.2923 28.6116C35.5905 28.6116 34.9174 28.883 34.4212 29.366C33.925 29.8491 33.6462 30.5042 33.6462 31.1873C33.6462 31.8704 33.925 32.5256 34.4212 33.0086C34.9174 33.4917 35.5905 33.763 36.2923 33.763M23.2921 31.1873C23.2924 31.6969 23.1374 32.1951 22.8467 32.6189C22.5559 33.0426 22.1425 33.3729 21.6588 33.5677C21.1751 33.7626 20.6429 33.8133 20.1295 33.7135C19.6162 33.6138 19.1448 33.3679 18.7751 33.0071C18.4681 32.7075 18.2417 32.3389 18.1159 31.9339C17.9902 31.5288 17.9689 31.0999 18.0541 30.6849C18.1392 30.27 18.3281 29.8819 18.604 29.5549C18.88 29.228 19.2345 28.9723 19.6361 28.8105C20.0378 28.6487 20.4742 28.5857 20.9068 28.6272C21.3394 28.6687 21.7548 28.8133 22.1163 29.0484C22.4778 29.2834 22.7742 29.6015 22.9793 29.9746C23.1843 30.3477 23.2918 30.7642 23.2921 31.1873ZM31.1152 38.7997C31.1177 39.181 31.033 39.5582 30.8674 39.9038C30.7017 40.2494 30.4592 40.5549 30.1573 40.798C29.8555 41.0412 29.5019 41.216 29.1221 41.3098C28.7424 41.4036 28.3459 41.414 27.9615 41.3404C27.4698 41.2468 27.0154 41.0192 26.6513 40.6842C26.2873 40.3491 26.0284 39.9203 25.9048 39.4476C25.7813 38.975 25.7981 38.4779 25.9534 38.0142C26.1087 37.5505 26.3961 37.1392 26.7821 36.8282C27.1681 36.5173 27.6368 36.3194 28.1338 36.2576C28.6308 36.1958 29.1357 36.2726 29.5896 36.4791C30.0435 36.6856 30.4278 37.0133 30.6979 37.4241C30.968 37.8349 31.1127 38.3119 31.1152 38.7997ZM31.1152 46.4232C31.1158 46.8042 31.0294 47.1807 30.8623 47.5253C30.6952 47.8699 30.4516 48.1741 30.149 48.4158C29.8464 48.6576 29.4924 48.8309 29.1127 48.9233C28.7329 49.0156 28.3367 49.0247 27.9529 48.9499C27.4402 48.85 26.9694 48.6046 26.5999 48.2445C26.2304 47.8845 25.9788 47.4259 25.8768 46.9267C25.7748 46.4276 25.827 45.9102 26.0268 45.4399C26.2266 44.9696 26.565 44.5674 26.9994 44.2842C27.3978 44.0252 27.8608 43.8764 28.3392 43.8535C28.8177 43.8306 29.2935 43.9345 29.716 44.1543C30.1385 44.374 30.4918 44.7012 30.7382 45.101C30.9846 45.5009 31.1149 45.9569 31.1152 46.4232ZM38.9383 38.7997C38.9408 39.181 38.8561 39.5582 38.6905 39.9038C38.5248 40.2494 38.2823 40.5549 37.9805 40.798C37.6786 41.0412 37.325 41.216 36.9453 41.3098C36.5655 41.4036 36.169 41.414 35.7846 41.3404C35.4003 41.2672 35.0375 41.1119 34.7223 40.8857C34.4071 40.6595 34.1474 40.3681 33.962 40.0323C33.7765 39.6966 33.6699 39.325 33.6499 38.9443C33.6299 38.5636 33.6969 38.1834 33.8461 37.831C34.0792 37.2808 34.5008 36.8262 35.0392 36.5444C35.5777 36.2626 36.1998 36.1709 36.7998 36.2851C37.3998 36.3992 37.9407 36.7121 38.3306 37.1705C38.7204 37.6289 38.9352 38.2046 38.9383 38.7997ZM23.2921 38.7997C23.296 39.31 23.1439 39.81 22.8551 40.236C22.5662 40.662 22.1538 40.9948 21.6702 41.192C21.1865 41.3892 20.6536 41.4419 20.1391 41.3434C19.6246 41.245 19.1518 40.9998 18.7808 40.639C18.4723 40.3406 18.2442 39.9727 18.1165 39.568C17.9889 39.1632 17.9657 38.7341 18.049 38.3185C18.1324 37.903 18.3197 37.5139 18.5943 37.1856C18.869 36.8573 19.2226 36.6 19.6238 36.4364C20.0249 36.2728 20.4614 36.208 20.8944 36.2477C21.3274 36.2875 21.7437 36.4305 22.1064 36.6642C22.4691 36.8979 22.7671 37.215 22.9739 37.5874C23.1807 37.9599 23.29 38.3763 23.2921 38.7997Z" fill="#FF8EDD"/>
<defs>
<filter id="filter0_dd_2495_2376" x="0" y="0" width="65" height="78" filterUnits="userSpaceOnUse" color-interpolation-filters="sRGB">
<feFlood flood-opacity="0" result="BackgroundImageFix"/>
<feColorMatrix in="SourceAlpha" type="matrix" values="0 0 0 0 0 0 0 0 0 0 0 0 0 0 0 0 0 0 127 0" result="hardAlpha"/>
<feOffset dx="4" dy="4"/>
<feGaussianBlur stdDeviation="2.5"/>
<feComposite in2="hardAlpha" operator="out"/>
<feColorMatrix type="matrix" values="0 0 0 0 0 0 0 0 0 0 0 0 0 0 0 0 0 0 0.05 0"/>
<feBlend mode="normal" in2="BackgroundImageFix" result="effect1_dropShadow_2495_2376"/>
<feColorMatrix in="SourceAlpha" type="matrix" values="0 0 0 0 0 0 0 0 0 0 0 0 0 0 0 0 0 0 127 0" result="hardAlpha"/>
<feOffset dx="4" dy="4"/>
<feGaussianBlur stdDeviation="5"/>
<feComposite in2="hardAlpha" operator="out"/>
<feColorMatrix type="matrix" values="0 0 0 0 0 0 0 0 0 0 0 0 0 0 0 0 0 0 0.08 0"/>
<feBlend mode="normal" in2="effect1_dropShadow_2495_2376" result="effect2_dropShadow_2495_2376"/>
<feBlend mode="normal" in="SourceGraphic" in2="effect2_dropShadow_2495_2376" result="shape"/>
</filter>
</defs>
</svg>
