<svg width="18" height="18" viewBox="0 0 18 18" fill="none" xmlns="http://www.w3.org/2000/svg">
<path d="M17.4586 13.4583C17.2547 13.2412 16.5347 12.599 15.2113 11.7494C13.8781 10.8923 12.8949 10.358 12.6129 10.2333C12.588 10.2223 12.5606 10.2183 12.5336 10.2216C12.5067 10.225 12.4811 10.2357 12.4597 10.2525C12.0054 10.6068 11.2406 11.2576 11.1996 11.2927C10.9347 11.5197 10.9347 11.5197 10.7179 11.449C10.3367 11.324 9.15232 10.6951 8.12028 9.66069C7.08825 8.62631 6.42692 7.41264 6.30192 7.03178C6.23044 6.81459 6.23044 6.81459 6.45817 6.54975C6.49333 6.50873 7.1445 5.74389 7.4988 5.28998C7.5156 5.26861 7.52626 5.24306 7.52964 5.21608C7.53301 5.1891 7.52896 5.16171 7.51794 5.13686C7.39333 4.85444 6.85896 3.87162 6.00192 2.53842C5.15114 1.21537 4.50974 0.495451 4.29255 0.291545C4.27262 0.272737 4.24798 0.259654 4.22124 0.253673C4.1945 0.247692 4.16664 0.249035 4.1406 0.25756C3.38141 0.518464 2.64891 0.851359 1.9531 1.2517C1.28139 1.64218 0.645454 2.09119 0.052705 2.5935C0.0320135 2.61109 0.0165006 2.63398 0.00782981 2.65972C-0.000840958 2.68545 -0.00234245 2.71307 0.00348627 2.73959C0.0851269 3.12006 0.475361 4.70834 1.6863 6.90834C2.92185 9.15365 3.7781 10.304 5.59255 12.1122C7.407 13.9205 8.59372 14.8283 10.8414 16.0638C13.0414 17.2747 14.6304 17.6654 15.0101 17.7462C15.0367 17.752 15.0644 17.7505 15.0902 17.7418C15.1159 17.7332 15.1389 17.7177 15.1566 17.697C15.6588 17.1043 16.1077 16.4683 16.498 15.7966C16.8983 15.1008 17.2312 14.3683 17.4922 13.6091C17.5005 13.5833 17.5018 13.5557 17.4959 13.5292C17.49 13.5026 17.4771 13.4782 17.4586 13.4583Z" fill="#6E6E6E"/>
</svg>
