<svg width="24" height="24" viewBox="0 0 24 24" fill="none" xmlns="http://www.w3.org/2000/svg">
<g clip-path="url(#clip0_1_1299)">
<path d="M24 4C24.2652 4 24.5196 4.10536 24.7071 4.29289C24.8946 4.48043 25 4.73478 25 5V19C25 19.2652 24.8946 19.5196 24.7071 19.7071C24.5196 19.8946 24.2652 20 24 20H9.455L5 23.5V5C5 4.73478 5.10536 4.48043 5.29289 4.29289C5.48043 4.10536 5.73478 4 6 4H24ZM20 8H18V16H20V8ZM14 9H12V10.999L10 11V13L12 12.999V15H14V12.999L16 13V11L14 10.999V9Z" fill="#6E6E6E"/>
</g>
<defs>
<clipPath id="clip0_1_1299">
<rect width="24" height="24" fill="white"/>
</clipPath>
</defs>
</svg>
