<svg width="20" height="20" viewBox="0 0 20 20" fill="none" xmlns="http://www.w3.org/2000/svg">
<path d="M16.979 3.0063L12.5219 6.48973L16.979 3.0063ZM12.5219 6.48973L12.887 3.51203L12.5219 6.48973ZM12.5219 6.48973L15.4996 6.85485L12.5219 6.48973Z" fill="#65C900"/>
<path d="M16.979 3.0063L12.5219 6.48973M12.5219 6.48973L12.887 3.51203M12.5219 6.48973L15.4996 6.85485" stroke="#04B30B" stroke-width="1.5" stroke-linecap="round" stroke-linejoin="round"/>
<mask id="path-3-inside-1_1_1172" fill="white">
<path d="M13.395 13.2942L13.85 12.8142L12.762 11.7812L12.307 12.2622L13.395 13.2942ZM15.349 12.6122L17.259 13.7132L18.008 12.4122L16.097 11.3122L15.349 12.6122ZM17.628 15.9922L16.208 17.4872L17.295 18.5212L18.715 17.0262L17.628 15.9922ZM15.353 17.9672C13.918 18.1082 10.173 17.9882 6.10899 13.7102L5.02199 14.7422C9.45099 19.4052 13.676 19.6412 15.5 19.4602L15.353 17.9672ZM6.10899 13.7102C2.23299 9.62925 1.58299 6.18625 1.50199 4.67625L0.00399259 4.75725C0.103993 6.60725 0.887993 10.3902 5.02199 14.7422L6.10899 13.7102ZM7.48499 7.07225L7.77099 6.77025L6.68399 5.73725L6.39699 6.03925L7.48499 7.07225ZM7.99699 3.01025L6.73599 1.22825L5.51099 2.09425L6.77099 3.87725L7.99699 3.01025ZM2.46699 0.842248L0.898993 2.49625L1.98699 3.52925L3.55699 1.87625L2.46699 0.842248ZM6.94099 6.55525C6.76101 6.3818 6.57934 6.21013 6.39599 6.04025L6.39399 6.04225L6.39099 6.04525C6.37343 6.06379 6.35675 6.08315 6.34099 6.10325C6.24297 6.233 6.1654 6.377 6.11099 6.53025C6.01299 6.80525 5.96099 7.16925 6.02699 7.62325C6.15699 8.51525 6.74199 9.71425 8.26899 11.3232L9.35699 10.2892C7.92899 8.78625 7.57699 7.86125 7.51099 7.40525C7.47899 7.18525 7.51099 7.07025 7.52399 7.03325L7.53199 7.01425C7.52383 7.02743 7.51446 7.03981 7.50399 7.05125C7.49812 7.05803 7.49212 7.0647 7.48599 7.07125C7.48599 7.07125 7.48399 7.07125 6.94099 6.55525ZM8.26899 11.3232C9.79199 12.9272 10.942 13.5562 11.819 13.6992C12.27 13.7722 12.635 13.7132 12.911 13.6042C13.0639 13.5442 13.2061 13.4598 13.332 13.3542C13.3443 13.3432 13.3563 13.3319 13.368 13.3202L13.382 13.3062C13.3844 13.3043 13.3867 13.3023 13.389 13.3002L13.392 13.2972L13.393 13.2952C13.393 13.2952 13.395 13.2942 12.851 12.7772C12.307 12.2612 12.308 12.2592 12.308 12.2592L12.31 12.2582L12.312 12.2552C12.3137 12.2536 12.3154 12.2519 12.317 12.2502L12.327 12.2402C12.3387 12.2289 12.3511 12.2182 12.364 12.2082C12.374 12.2022 12.373 12.2042 12.36 12.2092C12.34 12.2172 12.25 12.2492 12.06 12.2182C11.658 12.1522 10.79 11.7982 9.35699 10.2892L8.26899 11.3232ZM6.73599 1.22825C5.72199 -0.205752 3.69399 -0.448752 2.46799 0.843248L3.55399 1.87625C4.07699 1.32625 4.99899 1.36925 5.51099 2.09425L6.73599 1.22825ZM1.50199 4.67625C1.47999 4.27625 1.65499 3.87725 1.98699 3.52925L0.898993 2.49625C0.362993 3.06025 -0.0450074 3.84325 0.00399259 4.75725L1.50199 4.67625ZM16.207 17.4882C15.928 17.7822 15.637 17.9392 15.353 17.9672L15.5 19.4602C16.247 19.3872 16.852 18.9882 17.295 18.5212L16.207 17.4882ZM7.77099 6.77125C8.73899 5.75225 8.80699 4.15825 7.99699 3.01125L6.77199 3.87725C7.19399 4.47425 7.12899 5.26925 6.68399 5.73725L7.77099 6.77125ZM17.259 13.7132C18.08 14.1862 18.241 15.3482 17.628 15.9932L18.715 17.0262C20.02 15.6522 19.64 13.3522 18.008 12.4122L17.259 13.7132ZM13.85 12.8152C14.235 12.4092 14.836 12.3182 15.349 12.6132L16.097 11.3132C14.998 10.6812 13.637 10.8632 12.762 11.7832L13.85 12.8152Z"/>
</mask>
<path d="M17.259 13.7132L16.8256 13.4639L17.6923 13.9627L17.259 13.7132ZM15.5 19.4602L15.0024 19.5097L15.9976 19.4113L15.5 19.4602ZM6.10899 13.7102L6.45342 14.0727L5.76473 13.3476L6.10899 13.7102ZM0.00399259 4.75725L-0.0233362 4.258L0.0309892 5.25652L0.00399259 4.75725ZM5.51099 2.09425L5.22236 1.68597L5.79947 2.50264L5.51099 2.09425ZM13.1944 12.4158L12.6514 11.8998L11.9626 12.6247L12.5056 13.1407L13.1944 12.4158ZM12.9615 12.6607L13.5055 13.1777L14.1944 12.4528L13.6504 11.9358L12.9615 12.6607ZM15.2896 11.7139L14.9156 12.3639L15.7824 12.8626L16.1564 12.2126L15.2896 11.7139ZM17.1996 12.8139L16.8256 13.4639L17.6924 13.9626L18.0664 13.3126L17.1996 12.8139ZM17.8272 16.8714L18.3702 17.3884L19.0598 16.6641L18.5168 16.1471L17.8272 16.8714ZM17.0961 17.6425L16.5511 17.1255L15.8629 17.851L16.4079 18.368L17.0961 17.6425ZM14.9284 18.7647L15.0024 19.5097L15.9975 19.4108L15.9235 18.6658L14.9284 18.7647ZM5.91042 14.5887L6.45342 14.0727L5.76457 13.3478L5.22157 13.8638L5.91042 14.5887ZM0.725664 4.217L-0.0233362 4.258L0.0313214 5.2565L0.780322 5.2155L0.725664 4.217ZM6.88321 6.61636L7.42622 7.13337L8.11577 6.40913L7.57277 5.89213L6.88321 6.61636ZM7.67246 3.85264L8.28547 3.41964L7.70852 2.60286L7.09552 3.03586L7.67246 3.85264ZM5.83552 1.25286L5.22252 1.68586L5.79947 2.50264L6.41247 2.06964L5.83552 1.25286ZM2.6659 1.72301L3.2099 2.23901L3.89809 1.51348L3.35409 0.997482L2.6659 1.72301ZM1.78542 2.6488L1.24242 2.1328L0.553565 2.8577L1.09657 3.3737L1.78542 2.6488ZM9.15744 11.1687L9.70144 10.6517L9.01255 9.92682L8.46855 10.4438L9.15744 11.1687ZM17.6923 13.9627L18.4413 12.6617L17.5747 12.1628L16.8257 13.4638L17.6923 13.9627ZM5.76473 13.3476L4.67773 14.3796L5.36625 15.1049L6.45325 14.0729L5.76473 13.3476ZM15.9976 19.4113L15.8506 17.9183L14.8554 18.0162L15.0024 19.5092L15.9976 19.4113ZM1.475 4.17698L-0.023004 4.25798L0.0309892 5.25652L1.52899 5.17552L1.475 4.17698ZM6.44736 0.819968L5.22236 1.68597L5.79962 2.50253L7.02462 1.63653L6.44736 0.819968ZM0.554723 2.85885L1.64272 3.89185L2.33126 3.16665L1.24326 2.13365L0.554723 2.85885ZM8.61344 11.6857L9.70144 10.6517L9.01255 9.92682L7.92455 10.9608L8.61344 11.6857ZM12.307 12.2622L11.5805 11.575L10.8943 12.3005L11.6188 12.9878L12.307 12.2622ZM13.85 12.8152L13.1618 13.5408L13.8874 14.2291L14.5756 13.5033L13.85 12.8152ZM15.349 12.6132L14.8505 13.4801L15.7172 13.9785L16.2158 13.112L15.349 12.6132ZM17.259 13.7132L16.7596 14.5796L16.7598 14.5797L17.259 13.7132ZM18.715 17.0262L19.4401 17.7149L19.4401 17.7149L18.715 17.0262ZM16.207 17.4882L16.8955 16.763L16.1702 16.0743L15.4816 16.7999L16.207 17.4882ZM15.5 19.4602L15.4027 18.465L15.4012 18.4651L15.5 19.4602ZM6.10899 13.7102L5.38391 14.3989L5.38399 14.399L6.10899 13.7102ZM0.00399259 4.75725L-0.994574 4.81078L-0.99455 4.81122L0.00399259 4.75725ZM7.77099 6.77125L7.08177 7.4958L7.80681 8.18549L8.49601 7.45998L7.77099 6.77125ZM7.99699 3.01125L8.81384 2.4344L8.2367 1.61714L7.41973 2.19469L7.99699 3.01125ZM5.51099 2.09425L4.69415 2.67111L4.69433 2.67136L5.51099 2.09425ZM3.55399 1.87625L2.86479 2.60081L3.58946 3.29012L4.27866 2.56534L3.55399 1.87625ZM9.35699 10.2892L10.0821 9.60064L10.082 9.60046L9.35699 10.2892ZM13.395 13.2942L12.7068 14.0198L13.4326 14.7082L14.1207 13.9822L13.395 13.2942ZM13.85 12.8142L14.5757 13.5022L15.2631 12.777L14.5385 12.089L13.85 12.8142ZM12.762 11.7812L13.4505 11.056L12.724 10.3662L12.0355 11.094L12.762 11.7812ZM15.349 12.6122L14.4822 12.1135L13.9839 12.9796L14.8496 13.4786L15.349 12.6122ZM18.008 12.4122L18.5071 11.5457L18.5069 11.5456L18.008 12.4122ZM16.097 11.3122L16.5959 10.4456L15.729 9.94661L15.2302 10.8135L16.097 11.3122ZM17.628 15.9922L18.3172 15.2677L17.5921 14.578L16.9029 15.3036L17.628 15.9922ZM16.208 17.4872L15.4829 16.7986L14.7948 17.5231L15.5188 18.2118L16.208 17.4872ZM15.353 17.9672L15.4508 18.9625L15.4511 18.9624L15.353 17.9672ZM5.02199 14.7422L5.74706 14.0536L5.74703 14.0535L5.02199 14.7422ZM1.50199 4.67625L2.50056 4.62268L2.50048 4.62133L1.50199 4.67625ZM7.48499 7.07225L6.79645 7.79745L7.52258 8.48687L8.21107 7.75986L7.48499 7.07225ZM7.77099 6.77025L8.49707 7.45786L9.18349 6.73304L8.45986 6.04537L7.77099 6.77025ZM6.68399 5.73725L5.9593 5.04817L5.95911 5.04837L6.68399 5.73725ZM6.39699 6.03925L5.67211 5.35037L4.98292 6.07559L5.70845 6.76445L6.39699 6.03925ZM7.99699 3.01025L8.57438 3.82672L9.3911 3.24915L8.81329 2.43261L7.99699 3.01025ZM6.73599 1.22825L5.9195 1.8056L5.9197 1.80588L6.73599 1.22825ZM6.77099 3.87725L5.95433 4.45436L6.53164 5.2713L7.34838 4.69372L6.77099 3.87725ZM2.46699 0.842248L3.15522 0.116751L2.42948 -0.571698L1.74127 0.15426L2.46699 0.842248ZM0.898993 2.49625L1.62386 3.18513L1.62471 3.18424L0.898993 2.49625ZM1.98699 3.52925L2.71054 4.21953L2.71207 4.21792L1.98699 3.52925ZM3.55699 1.87625L4.28207 2.56492L4.97116 1.8394L4.24522 1.15075L3.55699 1.87625ZM6.94099 6.55525L6.24706 7.27532L6.25214 7.28015L6.94099 6.55525ZM6.39599 6.04025L7.07565 5.30672L6.36938 4.65232L5.68872 5.33331L6.39599 6.04025ZM6.39399 6.04225L7.10099 6.74947L7.10127 6.74919L6.39399 6.04225ZM6.39099 6.04525L5.684 5.33803L5.67427 5.34775L5.66482 5.35774L6.39099 6.04525ZM6.34099 6.10325L5.55399 5.4863L5.54848 5.49333L5.5431 5.50045L6.34099 6.10325ZM6.11099 6.53025L7.05297 6.86593L7.05336 6.86483L6.11099 6.53025ZM6.02699 7.62325L5.0374 7.76711L5.03745 7.76746L6.02699 7.62325ZM8.26899 11.3232L7.54364 12.0116L7.54381 12.0118L8.26899 11.3232ZM7.51099 7.40525L8.50068 7.262L8.50058 7.26131L7.51099 7.40525ZM7.52399 7.03325L6.60235 6.64522L6.59058 6.67316L6.58053 6.70176L7.52399 7.03325ZM7.53199 7.01425L8.45364 7.40228L6.68183 6.48773L7.53199 7.01425ZM7.50399 7.05125L6.76628 6.37613L6.75703 6.38624L6.74807 6.39659L7.50399 7.05125ZM7.48599 7.07125L7.48608 8.07125L7.92 8.07121L8.21639 7.75428L7.48599 7.07125ZM11.819 13.6992L11.6581 14.6862L11.6592 14.6864L11.819 13.6992ZM12.911 13.6042L12.5456 12.6734L12.5437 12.6742L12.911 13.6042ZM13.332 13.3542L13.9744 14.1206L13.9868 14.1102L13.9988 14.0994L13.332 13.3542ZM13.368 13.3202L14.0739 14.0286L14.0751 14.0274L13.368 13.3202ZM13.382 13.3062L12.7407 12.5389L12.7065 12.5676L12.6749 12.5991L13.382 13.3062ZM13.389 13.3002L14.0492 14.0513L14.0734 14.0301L14.0961 14.0074L13.389 13.3002ZM13.392 13.2972L14.0991 14.0044L14.2139 13.8895L14.2865 13.7443L13.392 13.2972ZM13.393 13.2952L12.9459 12.4007L12.6476 12.5498L12.4985 12.8482L13.393 13.2952ZM12.851 12.7772L13.5399 12.0524L13.5392 12.0517L12.851 12.7772ZM12.308 12.2592L11.8608 11.3648L11.5626 11.5139L11.4136 11.812L12.308 12.2592ZM12.31 12.2582L12.7572 13.1527L12.9948 13.0339L13.1421 12.8129L12.31 12.2582ZM12.312 12.2552L11.6153 11.5378L11.539 11.612L11.4799 11.7006L12.312 12.2552ZM12.317 12.2502L11.6099 11.5431L11.6047 11.5483L11.5996 11.5536L12.317 12.2502ZM12.327 12.2402L11.6323 11.5209L11.6261 11.527L11.6199 11.5331L12.327 12.2402ZM12.364 12.2082L11.8495 11.3508L11.7989 11.3811L11.7523 11.4171L12.364 12.2082ZM12.36 12.2092L12.001 11.2758L11.9886 11.2808L12.36 12.2092ZM12.06 12.2182L11.898 13.205L11.899 13.2052L12.06 12.2182ZM2.46799 0.843248L1.7426 0.154912L1.05509 0.879435L1.77879 1.56781L2.46799 0.843248ZM6.77199 3.87725L6.19473 3.06069L5.37821 3.63792L5.9554 4.45447L6.77199 3.87725ZM17.628 15.9932L16.9031 15.3044L16.2142 16.0292L16.9391 16.7181L17.628 15.9932ZM16.097 11.3132L16.9638 11.812L17.4626 10.945L16.5955 10.4464L16.097 11.3132ZM12.762 11.7832L12.0374 11.0941L11.3473 11.8197L12.0738 12.5088L12.762 11.7832ZM14.1207 13.9822L14.5757 13.5022L13.1242 12.1263L12.6692 12.6063L14.1207 13.9822ZM14.5385 12.089L13.4505 11.056L12.0735 12.5064L13.1615 13.5394L14.5385 12.089ZM12.0355 11.094L11.5805 11.575L13.0335 12.9494L13.4885 12.4684L12.0355 11.094ZM11.6188 12.9878L12.7068 14.0198L14.0832 12.5687L12.9952 11.5367L11.6188 12.9878ZM14.8496 13.4786L16.7596 14.5796L17.7584 12.8469L15.8484 11.7459L14.8496 13.4786ZM18.5069 11.5456L16.5959 10.4456L15.5981 12.1789L17.5091 13.2789L18.5069 11.5456ZM15.2302 10.8135L14.4822 12.1135L16.2158 13.111L16.9638 11.811L15.2302 10.8135ZM16.9029 15.3036L15.4829 16.7986L16.9331 18.1759L18.3531 16.6809L16.9029 15.3036ZM15.5188 18.2118L16.6058 19.2458L17.9842 17.7967L16.8972 16.7627L15.5188 18.2118ZM18.0201 19.2099L19.4401 17.7149L17.9899 16.3376L16.5699 17.8326L18.0201 19.2099ZM19.4042 16.3017L18.3172 15.2677L16.9388 16.7168L18.0258 17.7508L19.4042 16.3017ZM15.2552 16.972C14.079 17.0876 10.6545 17.0432 6.834 13.0215L5.38399 14.399C9.69151 18.9333 13.757 19.1289 15.4508 18.9625L15.2552 16.972ZM4.29693 15.4309C8.96931 20.3502 13.515 20.6621 15.5987 20.4554L15.4012 18.4651C13.837 18.6204 9.93267 18.4603 5.74706 14.0536L4.29693 15.4309ZM6.83408 13.0216C3.12946 9.12104 2.56942 5.90646 2.50056 4.62268L0.503428 4.72981C0.596563 6.46604 1.33653 10.1375 5.38391 14.3989L6.83408 13.0216ZM-0.99455 4.81122C-0.882342 6.88707 -0.00852604 10.8984 4.29696 15.431L5.74703 14.0535C1.78451 9.88206 1.09033 6.32743 1.00253 4.70327L-0.99455 4.81122ZM8.21107 7.75986L8.49707 7.45786L7.04491 6.08264L6.75891 6.38464L8.21107 7.75986ZM8.45986 6.04537L7.37287 5.01237L5.99512 6.46213L7.08212 7.49513L8.45986 6.04537ZM5.95911 5.04837L5.67211 5.35037L7.12187 6.72812L7.40887 6.42612L5.95911 5.04837ZM5.70845 6.76445L6.79645 7.79745L8.17353 6.34705L7.08553 5.31405L5.70845 6.76445ZM8.81329 2.43261L7.55229 0.650612L5.9197 1.80588L7.1807 3.58788L8.81329 2.43261ZM4.69433 2.67136L5.95433 4.45436L7.58766 3.30013L6.32766 1.51713L4.69433 2.67136ZM7.34838 4.69372L8.57438 3.82672L7.4196 2.19378L6.1936 3.06078L7.34838 4.69372ZM1.74127 0.15426L0.173271 1.80826L1.62471 3.18424L3.19271 1.53024L1.74127 0.15426ZM2.71207 4.21792L4.28207 2.56492L2.83192 1.18758L1.26192 2.84058L2.71207 4.21792ZM4.24522 1.15075L3.15522 0.116751L1.77877 1.56775L2.86877 2.60175L4.24522 1.15075ZM7.63491 5.83519C7.45022 5.65721 7.26379 5.48104 7.07565 5.30672L5.71634 6.77378C5.89488 6.93921 6.07181 7.1064 6.24708 7.2753L7.63491 5.83519ZM5.68872 5.33331L5.68672 5.33531L7.10127 6.74919L7.10327 6.74719L5.68872 5.33331ZM5.687 5.33503L5.684 5.33803L7.09799 6.75247L7.10099 6.74947L5.687 5.33503ZM5.66482 5.35774C5.6259 5.39885 5.58891 5.44175 5.55399 5.4863L7.12799 6.7202C7.12459 6.72455 7.12097 6.72874 7.11717 6.73276L5.66482 5.35774ZM5.5431 5.50045C5.3835 5.71171 5.25721 5.94617 5.16863 6.19567L7.05336 6.86483C7.07359 6.80784 7.10244 6.75429 7.13889 6.70605L5.5431 5.50045ZM5.16902 6.19456C5.0136 6.6307 4.94912 7.1599 5.0374 7.76711L7.01659 7.47939C6.97286 7.17859 7.01239 6.9798 7.05297 6.86593L5.16902 6.19456ZM5.03745 7.76746C5.20999 8.9514 5.95093 10.3334 7.54364 12.0116L8.99434 10.6349C7.53306 9.09511 7.10399 8.07909 7.01654 7.47903L5.03745 7.76746ZM10.082 9.60046C8.71983 8.16679 8.5243 7.42523 8.50068 7.262L6.52131 7.54849C6.62968 8.29727 7.13816 9.4057 8.63203 10.978L10.082 9.60046ZM8.50058 7.26131C8.49506 7.22335 8.49856 7.21899 8.49638 7.24264C8.4953 7.25429 8.49295 7.27149 8.48803 7.29356C8.48296 7.31631 8.47604 7.34029 8.46745 7.36473L6.58053 6.70176C6.51192 6.89706 6.46706 7.17559 6.52141 7.54919L8.50058 7.26131ZM8.44564 7.42128L8.45364 7.40228L6.61035 6.62622L6.60235 6.64522L8.44564 7.42128ZM6.68183 6.48773C6.70643 6.448 6.7347 6.41064 6.76628 6.37613L8.2417 7.72636C8.29421 7.66899 8.34123 7.60685 8.38215 7.54077L6.68183 6.48773ZM6.74807 6.39659C6.75053 6.39375 6.75304 6.39096 6.7556 6.38822L8.21639 7.75428C8.2312 7.73843 8.24571 7.72231 8.25992 7.70591L6.74807 6.39659ZM7.48599 7.07125C7.4859 6.07125 7.58419 6.07608 7.68153 6.09055C7.70445 6.0954 7.76353 6.11053 7.79943 6.12164C7.8569 6.14061 7.90117 6.16106 7.92666 6.17358C7.97731 6.19844 8.01471 6.22224 8.0304 6.23243C8.06471 6.25469 8.09001 6.27421 8.09785 6.28028C8.11759 6.29556 8.1324 6.30825 8.136 6.31133C8.14638 6.32021 8.15414 6.32724 8.15531 6.3283C8.15961 6.33219 8.16161 6.33407 8.1581 6.33081C8.15217 6.3253 8.13709 6.3112 8.10331 6.27933C8.03632 6.21613 7.90115 6.08816 7.62985 5.83035L6.25214 7.28015C6.52384 7.53834 6.66117 7.66837 6.73092 7.73417C6.76552 7.7668 6.78488 7.78494 6.79629 7.79556C6.80146 7.80036 6.80785 7.80628 6.81438 7.81218C6.81667 7.81425 6.825 7.82178 6.83567 7.83092C6.83942 7.83412 6.85431 7.84688 6.8741 7.86219C6.88195 7.86827 6.90727 7.88779 6.94158 7.91007C6.95727 7.92025 6.99467 7.94405 7.04532 7.96892C7.07082 7.98143 7.11509 8.00189 7.17256 8.02086C7.20845 8.03196 7.26754 8.0471 7.29046 8.05195C7.3878 8.06641 7.48608 8.07125 7.48599 7.07125ZM7.54381 12.0118C9.12776 13.68 10.4651 14.4917 11.6581 14.6862L11.9799 12.7123C11.4188 12.6208 10.4562 12.1745 8.99417 10.6347L7.54381 12.0118ZM11.6592 14.6864C12.2844 14.7876 12.8317 14.7107 13.2783 14.5343L12.5437 12.6742C12.4383 12.7158 12.2556 12.7569 11.9788 12.7121L11.6592 14.6864ZM13.2764 14.5351C13.53 14.4356 13.7657 14.2956 13.9744 14.1206L12.6896 12.5879C12.6465 12.624 12.5979 12.6529 12.5456 12.6734L13.2764 14.5351ZM13.9988 14.0994C14.0245 14.0765 14.0495 14.0529 14.0739 14.0286L12.6621 12.6119C12.6631 12.6109 12.6641 12.61 12.6651 12.6091L13.9988 14.0994ZM14.0751 14.0274L14.0891 14.0134L12.6749 12.5991L12.6609 12.6131L14.0751 14.0274ZM14.0232 14.0736C14.0321 14.0662 14.0407 14.0588 14.0492 14.0513L12.7288 12.5492C12.7326 12.5458 12.7366 12.5423 12.7407 12.5389L14.0232 14.0736ZM14.0961 14.0074L14.0991 14.0044L12.6849 12.5901L12.6819 12.5931L14.0961 14.0074ZM14.2865 13.7443L14.2875 13.7423L12.4985 12.8482L12.4975 12.8502L14.2865 13.7443ZM13.393 13.2952C13.84 14.1898 13.9827 14.1028 14.109 13.9934C14.1484 13.9506 14.248 13.8139 14.3002 13.7159C14.388 13.5265 14.3968 13.3539 14.3919 13.2487C14.383 13.0567 14.3198 12.9176 14.3035 12.8818C14.26 12.7859 14.2104 12.719 14.2024 12.7081C14.1727 12.6671 14.1461 12.6373 14.1418 12.6324C14.1255 12.6141 14.1119 12.6001 14.1092 12.5973C14.0999 12.5877 14.0912 12.5791 14.0859 12.5739C14.0734 12.5616 14.0533 12.5421 14.0189 12.5091C13.9493 12.4422 13.8122 12.3112 13.5399 12.0524L12.1621 13.5021C12.4338 13.7603 12.5676 13.8883 12.633 13.9511C12.6662 13.983 12.6796 13.9961 12.6838 14.0001C12.6868 14.0031 12.6821 13.9986 12.6749 13.9911C12.6731 13.9893 12.66 13.9759 12.644 13.9578C12.6398 13.9531 12.6132 13.9234 12.5835 13.8824C12.5756 13.8715 12.526 13.8045 12.4825 13.7087C12.4662 13.6729 12.403 13.5338 12.3941 13.3418C12.3892 13.2366 12.3979 13.064 12.4858 12.8746C12.538 12.7766 12.6376 12.6399 12.677 12.5971C12.8032 12.4877 12.9459 12.4007 13.393 13.2952ZM13.5392 12.0517C13.2675 11.794 13.1334 11.6661 13.0678 11.6031C13.0345 11.5712 13.021 11.5581 13.0168 11.5539C13.0138 11.551 13.0182 11.5553 13.0253 11.5625C13.0272 11.5645 13.0393 11.5769 13.0542 11.5936C13.0591 11.599 13.0813 11.6237 13.1068 11.6577C13.1163 11.6703 13.1511 11.7164 13.1863 11.7812C13.2022 11.8104 13.2412 11.8845 13.2701 11.9867C13.2851 12.0394 13.3053 12.1269 13.3077 12.2371C13.3071 12.3021 13.2973 12.405 13.291 12.4427C13.2559 12.5777 13.2024 12.7065 12.308 12.2592C11.4136 11.812 11.3601 11.9408 11.325 12.0758C11.3187 12.1135 11.3089 12.2164 11.3082 12.2814C11.3107 12.3916 11.3309 12.4791 11.3458 12.5318C11.3748 12.634 11.4137 12.7081 11.4297 12.7373C11.4649 12.8021 11.4997 12.8482 11.5092 12.8609C11.5348 12.8948 11.557 12.9197 11.562 12.9252C11.5771 12.9422 11.5898 12.9551 11.5928 12.9582C11.6019 12.9675 11.6105 12.976 11.6159 12.9813C11.6285 12.9937 11.6487 13.0133 11.6832 13.0463C11.7531 13.1134 11.8905 13.2445 12.1628 13.5028L13.5392 12.0517ZM12.7552 13.1537L12.7572 13.1527L11.8628 11.3638L11.8608 11.3648L12.7552 13.1537ZM13.1421 12.8129L13.1441 12.8099L11.4799 11.7006L11.4779 11.7036L13.1421 12.8129ZM13.0086 12.9727C13.0174 12.9642 13.0259 12.9556 13.0344 12.9469L11.5996 11.5536C11.6048 11.5483 11.61 11.543 11.6153 11.5378L13.0086 12.9727ZM13.0241 12.9574L13.0341 12.9474L11.6199 11.5331L11.6099 11.5431L13.0241 12.9574ZM13.0216 12.9596C13.0071 12.9737 12.9917 12.9869 12.9757 12.9993L11.7523 11.4171C11.7105 11.4495 11.6704 11.4841 11.6323 11.5209L13.0216 12.9596ZM12.8785 13.0657C12.8673 13.0724 12.8514 13.0816 12.8315 13.092C12.8266 13.0946 12.8027 13.1071 12.7709 13.121C12.7632 13.1243 12.7408 13.1341 12.7113 13.1448C12.6986 13.1494 12.665 13.1613 12.621 13.1727C12.5997 13.1782 12.557 13.1886 12.5021 13.1959C12.4725 13.1998 12.3242 13.221 12.1414 13.1779C12.0437 13.1549 11.8583 13.0958 11.6848 12.9322C11.4851 12.744 11.3798 12.491 11.3713 12.2381C11.364 12.0202 11.4292 11.8559 11.4675 11.7753C11.5091 11.6879 11.5548 11.6246 11.5822 11.5895C11.6709 11.4759 11.7664 11.4078 11.7686 11.4061C11.8131 11.3726 11.851 11.3502 11.8561 11.3471C11.9334 11.3008 11.9972 11.2774 12.001 11.2759L12.719 13.1426C12.7357 13.1361 12.8066 13.1092 12.8851 13.0621C12.8903 13.059 12.9283 13.0366 12.9728 13.003C12.975 13.0013 13.0706 12.9333 13.1592 12.8196C13.1866 12.7845 13.2323 12.7213 13.2739 12.6338C13.3122 12.5532 13.3775 12.3889 13.3702 12.171C13.3617 11.9181 13.2563 11.6651 13.0566 11.4769C12.8831 11.3133 12.6978 11.2542 12.6 11.2312C12.4172 11.1881 12.2689 11.2093 12.2393 11.2132C12.1844 11.2205 12.1417 11.2309 12.1204 11.2364C12.0764 11.2478 12.0428 11.2597 12.0301 11.2644C12.0005 11.2751 11.978 11.2848 11.9702 11.2882C11.938 11.3023 11.9134 11.3152 11.9073 11.3184C11.8852 11.3299 11.8657 11.341 11.8495 11.3508L12.8785 13.0657ZM11.9886 11.2808C12.0163 11.2697 12.0485 11.2586 12.0834 11.2496C12.1165 11.2412 12.1454 11.2364 12.1692 11.2339C12.2171 11.2288 12.2368 11.2339 12.221 11.2313L11.899 13.2052C12.2621 13.2644 12.5366 13.2156 12.7314 13.1377L11.9886 11.2808ZM12.222 11.2315C12.1349 11.2172 11.4538 11.0451 10.0821 9.60064L8.63186 10.9779C10.1262 12.5514 11.1811 13.0873 11.898 13.205L12.222 11.2315ZM7.55249 0.650895C6.20827 -1.2501 3.44203 -1.636 1.7426 0.154912L3.19338 1.53158C3.94596 0.738498 5.23572 0.838601 5.9195 1.8056L7.55249 0.650895ZM1.77879 1.56781L2.86479 2.60081L4.2432 1.15168L3.1572 0.118682L1.77879 1.56781ZM4.27866 2.56534C4.32297 2.51875 4.38094 2.49711 4.44633 2.50304C4.50586 2.50844 4.60226 2.541 4.69415 2.67111L6.32784 1.51739C5.47386 0.30814 3.81217 0.153567 2.82932 1.18715L4.27866 2.56534ZM2.50048 4.62133C2.49741 4.56538 2.5161 4.42334 2.71054 4.21953L1.26345 2.83897C0.793889 3.33116 0.462579 3.98712 0.503502 4.73117L2.50048 4.62133ZM0.174122 1.80736C-0.497008 2.51355 -1.06204 3.55235 -0.994573 4.81078L1.00256 4.70371C0.972024 4.13415 1.22299 3.60694 1.62386 3.18513L0.174122 1.80736ZM15.4816 16.7999C15.3135 16.9771 15.2311 16.9744 15.2549 16.9721L15.4511 18.9624C16.0429 18.9041 16.5425 18.5874 16.9324 18.1766L15.4816 16.7999ZM15.5973 20.4555C16.6547 20.3522 17.4685 19.7913 18.0205 19.2095L16.5695 17.833C16.2354 18.1852 15.8393 18.4223 15.4027 18.465L15.5973 20.4555ZM17.9835 17.796L16.8955 16.763L15.5185 18.2134L16.6065 19.2464L17.9835 17.796ZM8.49601 7.45998C9.81328 6.0733 9.8814 3.94611 8.81384 2.4344L7.18014 3.5881C7.73258 4.37038 7.6647 5.43119 7.04598 6.08252L8.49601 7.45998ZM7.41973 2.19469L6.19473 3.06069L7.34925 4.69381L8.57425 3.82781L7.41973 2.19469ZM5.9554 4.45447C6.11675 4.68272 6.05775 4.94464 5.9593 5.04817L7.40868 6.42632C8.20024 5.59385 8.27124 4.26578 7.58858 3.30003L5.9554 4.45447ZM5.99477 6.4618L7.08177 7.4958L8.46022 6.0467L7.37322 5.0127L5.99477 6.4618ZM16.7598 14.5797C16.8789 14.6484 16.9676 14.7768 16.9929 14.9409C17.0188 15.1093 16.9674 15.2368 16.9031 15.3044L18.3529 16.6821C19.4247 15.5543 19.1238 13.6335 17.7582 12.8468L16.7598 14.5797ZM16.9391 16.7181L18.0261 17.7511L19.4039 16.3014L18.3169 15.2684L16.9391 16.7181ZM19.4401 17.7149C21.2081 15.8534 20.6782 12.7962 18.5071 11.5457L17.5089 13.2788C18.6018 13.9083 18.8319 15.4511 17.9899 16.3376L19.4401 17.7149ZM14.5756 13.5033C14.6124 13.4645 14.6519 13.4471 14.6897 13.4418C14.727 13.4366 14.7821 13.4408 14.8505 13.4801L15.8475 11.7464C14.9436 11.2266 13.8346 11.3782 13.1244 12.1272L14.5756 13.5033ZM16.2158 13.112L16.9638 11.812L15.2302 10.8145L14.4822 12.1145L16.2158 13.112ZM16.5955 10.4464C15.106 9.58977 13.2377 9.83208 12.0374 11.0941L13.4866 12.4724C14.0363 11.8944 14.89 11.7727 15.5985 12.1801L16.5955 10.4464ZM12.0738 12.5088L13.1618 13.5408L14.5382 12.0897L13.4502 11.0577L12.0738 12.5088Z" fill="#04B30B" mask="url(#path-3-inside-1_1_1172)"/>
</svg>
