<svg width="28" height="24" viewBox="0 0 28 24" fill="none" xmlns="http://www.w3.org/2000/svg">
<path d="M17.395 15.2942L17.85 14.8142L16.762 13.7812L16.307 14.2622L17.395 15.2942ZM19.349 14.6122L21.259 15.7132L22.008 14.4122L20.097 13.3122L19.349 14.6122ZM21.628 17.9922L20.208 19.4872L21.295 20.5212L22.715 19.0262L21.628 17.9922ZM19.353 19.9672C17.918 20.1082 14.173 19.9882 10.109 15.7102L9.02199 16.7422C13.451 21.4052 17.676 21.6412 19.5 21.4602L19.353 19.9672ZM10.109 15.7102C6.23299 11.6292 5.58299 8.18625 5.50199 6.67625L4.00399 6.75725C4.10399 8.60725 4.88799 12.3902 9.02199 16.7422L10.109 15.7102ZM11.485 9.07225L11.771 8.77025L10.684 7.73725L10.397 8.03925L11.485 9.07225ZM11.997 5.01025L10.736 3.22825L9.51099 4.09425L10.771 5.87725L11.997 5.01025ZM6.46699 2.84225L4.89899 4.49625L5.98699 5.52925L7.55699 3.87625L6.46699 2.84225ZM10.941 8.55525C10.761 8.3818 10.5793 8.21013 10.396 8.04025L10.394 8.04225L10.391 8.04525C10.3734 8.06379 10.3567 8.08315 10.341 8.10325C10.243 8.233 10.1654 8.377 10.111 8.53025C10.013 8.80525 9.96099 9.16925 10.027 9.62325C10.157 10.5152 10.742 11.7142 12.269 13.3232L13.357 12.2892C11.929 10.7862 11.577 9.86125 11.511 9.40525C11.479 9.18525 11.511 9.07025 11.524 9.03325L11.532 9.01425C11.5238 9.02743 11.5145 9.03981 11.504 9.05125C11.4981 9.05803 11.4921 9.0647 11.486 9.07125C11.486 9.07125 11.484 9.07125 10.941 8.55525ZM12.269 13.3232C13.792 14.9272 14.942 15.5562 15.819 15.6992C16.27 15.7722 16.635 15.7132 16.911 15.6042C17.0639 15.5442 17.2061 15.4598 17.332 15.3542C17.3443 15.3432 17.3563 15.3319 17.368 15.3202L17.382 15.3062C17.3844 15.3043 17.3867 15.3023 17.389 15.3002L17.392 15.2972L17.393 15.2952C17.393 15.2952 17.395 15.2942 16.851 14.7772C16.307 14.2612 16.308 14.2592 16.308 14.2592L16.31 14.2582L16.312 14.2552C16.3137 14.2536 16.3154 14.2519 16.317 14.2502L16.327 14.2402C16.3387 14.2289 16.3511 14.2182 16.364 14.2082C16.374 14.2022 16.373 14.2042 16.36 14.2092C16.34 14.2172 16.25 14.2492 16.06 14.2182C15.658 14.1522 14.79 13.7982 13.357 12.2892L12.269 13.3232ZM10.736 3.22825C9.72199 1.79425 7.69399 1.55125 6.46799 2.84325L7.55399 3.87625C8.07699 3.32625 8.99899 3.36925 9.51099 4.09425L10.736 3.22825ZM5.50199 6.67625C5.47999 6.27625 5.65499 5.87725 5.98699 5.52925L4.89899 4.49625C4.36299 5.06025 3.95499 5.84325 4.00399 6.75725L5.50199 6.67625ZM20.207 19.4882C19.928 19.7822 19.637 19.9392 19.353 19.9672L19.5 21.4602C20.247 21.3872 20.852 20.9882 21.295 20.5212L20.207 19.4882ZM11.771 8.77125C12.739 7.75225 12.807 6.15825 11.997 5.01125L10.772 5.87725C11.194 6.47425 11.129 7.26925 10.684 7.73725L11.771 8.77125ZM21.259 15.7132C22.08 16.1862 22.241 17.3482 21.628 17.9932L22.715 19.0262C24.02 17.6522 23.64 15.3522 22.008 14.4122L21.259 15.7132ZM17.85 14.8152C18.235 14.4092 18.836 14.3182 19.349 14.6132L20.097 13.3132C18.998 12.6812 17.637 12.8632 16.762 13.7832L17.85 14.8152Z" fill="#B90000"/>
<path d="M20 8L16 4M20 4L16 8" stroke="#B90000" stroke-linecap="round"/>
</svg>
