<svg width="24" height="24" viewBox="0 0 24 24" fill="none" xmlns="http://www.w3.org/2000/svg">
<path d="M16.75 8.74875L20.75 4.74875L16.75 8.74875ZM20.75 4.74875V7.74875V4.74875ZM20.75 4.74875H17.75H20.75Z" fill="#C97900"/>
<path d="M16.75 8.74875L20.75 4.74875M20.75 4.74875V7.74875M20.75 4.74875H17.75" stroke="#C97900" stroke-width="1.5" stroke-linecap="round" stroke-linejoin="round"/>
<mask id="path-3-inside-1_1_1168" fill="white">
<path d="M17.395 15.293L17.85 14.813L16.762 13.78L16.307 14.261L17.395 15.293ZM19.349 14.611L21.259 15.712L22.008 14.411L20.097 13.311L19.349 14.611ZM21.628 17.991L20.208 19.486L21.295 20.52L22.715 19.025L21.628 17.991ZM19.353 19.966C17.918 20.107 14.173 19.987 10.109 15.709L9.02199 16.741C13.451 21.404 17.676 21.64 19.5 21.459L19.353 19.966ZM10.109 15.709C6.23299 11.628 5.58299 8.185 5.50199 6.675L4.00399 6.756C4.10399 8.606 4.88799 12.389 9.02199 16.741L10.109 15.709ZM11.485 9.071L11.771 8.769L10.684 7.736L10.397 8.038L11.485 9.071ZM11.997 5.009L10.736 3.227L9.51099 4.093L10.771 5.876L11.997 5.009ZM6.46699 2.841L4.89899 4.495L5.98699 5.528L7.55699 3.875L6.46699 2.841ZM10.941 8.554C10.761 8.38055 10.5793 8.20888 10.396 8.039L10.394 8.041L10.391 8.044C10.3734 8.06254 10.3567 8.0819 10.341 8.102C10.243 8.23175 10.1654 8.37575 10.111 8.529C10.013 8.804 9.96099 9.168 10.027 9.622C10.157 10.514 10.742 11.713 12.269 13.322L13.357 12.288C11.929 10.785 11.577 9.86 11.511 9.404C11.479 9.184 11.511 9.069 11.524 9.032L11.532 9.013C11.5238 9.02617 11.5145 9.03856 11.504 9.05C11.4981 9.05678 11.4921 9.06345 11.486 9.07C11.486 9.07 11.484 9.07 10.941 8.554ZM12.269 13.322C13.792 14.926 14.942 15.555 15.819 15.698C16.27 15.771 16.635 15.712 16.911 15.603C17.0639 15.543 17.2061 15.4585 17.332 15.353C17.3443 15.342 17.3563 15.3307 17.368 15.319L17.382 15.305C17.3844 15.303 17.3867 15.301 17.389 15.299L17.392 15.296L17.393 15.294C17.393 15.294 17.395 15.293 16.851 14.776C16.307 14.26 16.308 14.258 16.308 14.258L16.31 14.257L16.312 14.254C16.3137 14.2524 16.3154 14.2507 16.317 14.249L16.327 14.239C16.3387 14.2277 16.3511 14.217 16.364 14.207C16.374 14.201 16.373 14.203 16.36 14.208C16.34 14.216 16.25 14.248 16.06 14.217C15.658 14.151 14.79 13.797 13.357 12.288L12.269 13.322ZM10.736 3.227C9.72199 1.793 7.69399 1.55 6.46799 2.842L7.55399 3.875C8.07699 3.325 8.99899 3.368 9.51099 4.093L10.736 3.227ZM5.50199 6.675C5.47999 6.275 5.65499 5.876 5.98699 5.528L4.89899 4.495C4.36299 5.059 3.95499 5.842 4.00399 6.756L5.50199 6.675ZM20.207 19.487C19.928 19.781 19.637 19.938 19.353 19.966L19.5 21.459C20.247 21.386 20.852 20.987 21.295 20.52L20.207 19.487ZM11.771 8.77C12.739 7.751 12.807 6.157 11.997 5.01L10.772 5.876C11.194 6.473 11.129 7.268 10.684 7.736L11.771 8.77ZM21.259 15.712C22.08 16.185 22.241 17.347 21.628 17.992L22.715 19.025C24.02 17.651 23.64 15.351 22.008 14.411L21.259 15.712ZM17.85 14.814C18.235 14.408 18.836 14.317 19.349 14.612L20.097 13.312C18.998 12.68 17.637 12.862 16.762 13.782L17.85 14.814Z"/>
</mask>
<path d="M21.259 15.712L20.8256 15.4626L21.6923 15.9615L21.259 15.712ZM19.5 21.459L19.0024 21.5084L19.9976 21.41L19.5 21.459ZM10.109 15.709L10.4534 16.0714L9.76473 15.3464L10.109 15.709ZM4.00399 6.756L3.97666 6.25674L4.03099 7.25527L4.00399 6.756ZM9.51099 4.093L9.22236 3.68472L9.79947 4.50139L9.51099 4.093ZM17.1944 14.4145L16.6514 13.8985L15.9626 14.6234L16.5056 15.1394L17.1944 14.4145ZM16.9615 14.6594L17.5055 15.1764L18.1944 14.4516L17.6504 13.9346L16.9615 14.6594ZM19.2896 13.7126L18.9156 14.3626L19.7824 14.8614L20.1564 14.2114L19.2896 13.7126ZM21.1996 14.8126L20.8256 15.4626L21.6924 15.9614L22.0664 15.3114L21.1996 14.8126ZM21.8272 18.8701L22.3702 19.3871L23.0598 18.6629L22.5168 18.1459L21.8272 18.8701ZM21.0961 19.6412L20.5511 19.1242L19.8629 19.8497L20.4079 20.3667L21.0961 19.6412ZM18.9284 20.7634L19.0024 21.5084L19.9975 21.4096L19.9235 20.6646L18.9284 20.7634ZM9.91042 16.5874L10.4534 16.0714L9.76457 15.3465L9.22157 15.8625L9.91042 16.5874ZM4.72566 6.21574L3.97666 6.25674L4.03132 7.25525L4.78032 7.21425L4.72566 6.21574ZM10.8832 8.61511L11.4262 9.13211L12.1158 8.40788L11.5728 7.89088L10.8832 8.61511ZM11.6725 5.85139L12.2855 5.41839L11.7085 4.60161L11.0955 5.03461L11.6725 5.85139ZM9.83552 3.25161L9.22252 3.68461L9.79947 4.50139L10.4125 4.06839L9.83552 3.25161ZM6.6659 3.72176L7.2099 4.23776L7.89809 3.51223L7.35409 2.99623L6.6659 3.72176ZM5.78542 4.64755L5.24242 4.13155L4.55357 4.85645L5.09657 5.37245L5.78542 4.64755ZM13.1574 13.1674L13.7014 12.6504L13.0125 11.9256L12.4685 12.4426L13.1574 13.1674ZM21.6923 15.9615L22.4413 14.6605L21.5747 14.1615L20.8257 15.4625L21.6923 15.9615ZM9.76473 15.3464L8.67773 16.3784L9.36625 17.1036L10.4533 16.0716L9.76473 15.3464ZM19.9976 21.41L19.8506 19.917L18.8554 20.015L19.0024 21.508L19.9976 21.41ZM5.475 6.17573L3.977 6.25673L4.03099 7.25527L5.52899 7.17427L5.475 6.17573ZM10.4474 2.81872L9.22236 3.68472L9.79962 4.50128L11.0246 3.63528L10.4474 2.81872ZM4.55472 4.8576L5.64272 5.8906L6.33126 5.1654L5.24326 4.1324L4.55472 4.8576ZM12.6134 13.6844L13.7014 12.6504L13.0125 11.9256L11.9245 12.9596L12.6134 13.6844ZM16.307 14.261L15.5805 13.5738L14.8943 14.2993L15.6188 14.9865L16.307 14.261ZM17.85 14.814L17.1618 15.5395L17.8874 16.2278L18.5756 15.5021L17.85 14.814ZM19.349 14.612L18.8505 15.4789L19.7172 15.9773L20.2158 15.1107L19.349 14.612ZM21.259 15.712L20.7596 16.5784L20.7598 16.5785L21.259 15.712ZM22.715 19.025L23.4401 19.7137L23.4401 19.7137L22.715 19.025ZM20.207 19.487L20.8955 18.7618L20.1702 18.0731L19.4816 18.7986L20.207 19.487ZM19.5 21.459L19.4027 20.4637L19.4012 20.4639L19.5 21.459ZM10.109 15.709L9.38391 16.3977L9.38399 16.3977L10.109 15.709ZM4.00399 6.756L3.00543 6.80953L3.00545 6.80997L4.00399 6.756ZM11.771 8.77L11.0818 9.49455L11.8068 10.1842L12.496 9.45873L11.771 8.77ZM11.997 5.01L12.8138 4.43315L12.2367 3.61589L11.4197 4.19344L11.997 5.01ZM9.51099 4.093L8.69415 4.66986L8.69433 4.67011L9.51099 4.093ZM7.55399 3.875L6.86479 4.59956L7.58946 5.28887L8.27866 4.56409L7.55399 3.875ZM13.357 12.288L14.0821 11.5994L14.082 11.5992L13.357 12.288ZM17.395 15.293L16.7068 16.0185L17.4326 16.7069L18.1207 15.981L17.395 15.293ZM17.85 14.813L18.5757 15.501L19.2631 14.7758L18.5385 14.0878L17.85 14.813ZM16.762 13.78L17.4505 13.0548L16.724 12.365L16.0355 13.0928L16.762 13.78ZM19.349 14.611L18.4822 14.1123L17.9839 14.9784L18.8496 15.4774L19.349 14.611ZM22.008 14.411L22.5071 13.5445L22.5069 13.5443L22.008 14.411ZM20.097 13.311L20.5959 12.4443L19.729 11.9454L19.2302 12.8123L20.097 13.311ZM21.628 17.991L22.3172 17.2664L21.5921 16.5767L20.9029 17.3023L21.628 17.991ZM20.208 19.486L19.4829 18.7973L18.7948 19.5218L19.5188 20.2105L20.208 19.486ZM19.353 19.966L19.4508 20.9612L19.4511 20.9612L19.353 19.966ZM9.02199 16.741L9.74706 16.0523L9.74703 16.0523L9.02199 16.741ZM5.50199 6.675L6.50056 6.62143L6.50048 6.62008L5.50199 6.675ZM11.485 9.071L10.7965 9.7962L11.5226 10.4856L12.2111 9.75861L11.485 9.071ZM11.771 8.769L12.4971 9.45661L13.1835 8.73179L12.4599 8.04411L11.771 8.769ZM10.684 7.736L9.9593 7.04692L9.95911 7.04712L10.684 7.736ZM10.397 8.038L9.67211 7.34912L8.98292 8.07434L9.70845 8.7632L10.397 8.038ZM11.997 5.009L12.5744 5.82547L13.3911 5.2479L12.8133 4.43136L11.997 5.009ZM10.736 3.227L9.9195 3.80435L9.9197 3.80463L10.736 3.227ZM10.771 5.876L9.95433 6.45311L10.5316 7.27005L11.3484 6.69247L10.771 5.876ZM6.46699 2.841L7.15522 2.1155L6.42948 1.42705L5.74127 2.15301L6.46699 2.841ZM4.89899 4.495L5.62386 5.18388L5.62471 5.18299L4.89899 4.495ZM5.98699 5.528L6.71054 6.21828L6.71207 6.21667L5.98699 5.528ZM7.55699 3.875L8.28207 4.56367L8.97116 3.83815L8.24522 3.1495L7.55699 3.875ZM10.941 8.554L10.2471 9.27407L10.2521 9.2789L10.941 8.554ZM10.396 8.039L11.0756 7.30547L10.3694 6.65107L9.68872 7.33206L10.396 8.039ZM10.394 8.041L11.101 8.74822L11.1013 8.74794L10.394 8.041ZM10.391 8.044L9.684 7.33678L9.67427 7.3465L9.66482 7.35649L10.391 8.044ZM10.341 8.102L9.55399 7.48505L9.54848 7.49207L9.5431 7.4992L10.341 8.102ZM10.111 8.529L11.053 8.86468L11.0534 8.86358L10.111 8.529ZM10.027 9.622L9.0374 9.76586L9.03745 9.76621L10.027 9.622ZM12.269 13.322L11.5436 14.0104L11.5438 14.0106L12.269 13.322ZM11.511 9.404L12.5007 9.26075L12.5006 9.26006L11.511 9.404ZM11.524 9.032L10.6023 8.64396L10.5906 8.67191L10.5805 8.70051L11.524 9.032ZM11.532 9.013L12.4536 9.40103L10.6818 8.48648L11.532 9.013ZM11.504 9.05L10.7663 8.37488L10.757 8.38499L10.7481 8.39534L11.504 9.05ZM11.486 9.07L11.4861 10.07L11.92 10.07L12.2164 9.75302L11.486 9.07ZM15.819 15.698L15.6581 16.685L15.6592 16.6851L15.819 15.698ZM16.911 15.603L16.5456 14.6722L16.5437 14.6729L16.911 15.603ZM17.332 15.353L17.9744 16.1194L17.9868 16.109L17.9988 16.0982L17.332 15.353ZM17.368 15.319L18.0739 16.0273L18.0751 16.0261L17.368 15.319ZM17.382 15.305L16.7407 14.5377L16.7065 14.5663L16.6749 14.5979L17.382 15.305ZM17.389 15.299L18.0492 16.0501L18.0734 16.0288L18.0961 16.0061L17.389 15.299ZM17.392 15.296L18.0991 16.0031L18.2139 15.8883L18.2865 15.743L17.392 15.296ZM17.393 15.294L16.9459 14.3995L16.6476 14.5486L16.4985 14.847L17.393 15.294ZM16.851 14.776L17.5399 14.0511L17.5392 14.0505L16.851 14.776ZM16.308 14.258L15.8608 13.3636L15.5626 13.5126L15.4136 13.8108L16.308 14.258ZM16.31 14.257L16.7572 15.1514L16.9948 15.0326L17.1421 14.8116L16.31 14.257ZM16.312 14.254L15.6153 13.5366L15.539 13.6108L15.4799 13.6994L16.312 14.254ZM16.317 14.249L15.6099 13.5419L15.6047 13.5471L15.5996 13.5523L16.317 14.249ZM16.327 14.239L15.6323 13.5196L15.6261 13.5257L15.6199 13.5319L16.327 14.239ZM16.364 14.207L15.8495 13.3495L15.7989 13.3798L15.7523 13.4159L16.364 14.207ZM16.36 14.208L16.001 13.2746L15.9886 13.2795L16.36 14.208ZM16.06 14.217L15.898 15.2038L15.899 15.2039L16.06 14.217ZM6.46799 2.842L5.7426 2.15366L5.05509 2.87818L5.77879 3.56656L6.46799 2.842ZM10.772 5.876L10.1947 5.05944L9.37821 5.63667L9.9554 6.45322L10.772 5.876ZM21.628 17.992L20.9031 17.3031L20.2142 18.028L20.9391 18.7169L21.628 17.992ZM20.097 13.312L20.9638 13.8107L21.4626 12.9438L20.5955 12.4451L20.097 13.312ZM16.762 13.782L16.0374 13.0928L15.3473 13.8184L16.0738 14.5075L16.762 13.782ZM18.1207 15.981L18.5757 15.501L17.1242 14.125L16.6692 14.605L18.1207 15.981ZM18.5385 14.0878L17.4505 13.0548L16.0735 14.5052L17.1615 15.5382L18.5385 14.0878ZM16.0355 13.0928L15.5805 13.5738L17.0335 14.9482L17.4885 14.4672L16.0355 13.0928ZM15.6188 14.9865L16.7068 16.0185L18.0832 14.5675L16.9952 13.5355L15.6188 14.9865ZM18.8496 15.4774L20.7596 16.5784L21.7584 14.8456L19.8484 13.7446L18.8496 15.4774ZM22.5069 13.5443L20.5959 12.4443L19.5981 14.1777L21.5091 15.2777L22.5069 13.5443ZM19.2302 12.8123L18.4822 14.1123L20.2158 15.1097L20.9638 13.8097L19.2302 12.8123ZM20.9029 17.3023L19.4829 18.7973L20.9331 20.1747L22.3531 18.6797L20.9029 17.3023ZM19.5188 20.2105L20.6058 21.2445L21.9842 19.7954L20.8972 18.7614L19.5188 20.2105ZM22.0201 21.2087L23.4401 19.7137L21.9899 18.3363L20.5699 19.8313L22.0201 21.2087ZM23.4042 18.3004L22.3172 17.2664L20.9388 18.7155L22.0258 19.7495L23.4042 18.3004ZM19.2552 18.9708C18.079 19.0864 14.6545 19.0419 10.834 15.0203L9.38399 16.3977C13.6915 20.9321 17.757 21.1276 19.4508 20.9612L19.2552 18.9708ZM8.29693 17.4297C12.9693 22.3489 17.515 22.6609 19.5987 22.4541L19.4012 20.4639C17.837 20.6191 13.9327 20.4591 9.74706 16.0523L8.29693 17.4297ZM10.8341 15.0203C7.12946 11.1198 6.56942 7.90521 6.50056 6.62143L4.50343 6.72856C4.59656 8.46478 5.33653 12.1362 9.38391 16.3977L10.8341 15.0203ZM3.00545 6.80997C3.11766 8.88582 3.99147 12.8972 8.29696 17.4297L9.74703 16.0523C5.78451 11.8808 5.09033 8.32618 5.00253 6.70202L3.00545 6.80997ZM12.2111 9.75861L12.4971 9.45661L11.0449 8.08139L10.7589 8.38339L12.2111 9.75861ZM12.4599 8.04411L11.3729 7.01111L9.99512 8.46088L11.0821 9.49388L12.4599 8.04411ZM9.95911 7.04712L9.67211 7.34912L11.1219 8.72687L11.4089 8.42487L9.95911 7.04712ZM9.70845 8.7632L10.7965 9.7962L12.1735 8.3458L11.0855 7.3128L9.70845 8.7632ZM12.8133 4.43136L11.5523 2.64936L9.9197 3.80463L11.1807 5.58663L12.8133 4.43136ZM8.69433 4.67011L9.95433 6.45311L11.5877 5.29888L10.3277 3.51588L8.69433 4.67011ZM11.3484 6.69247L12.5744 5.82547L11.4196 4.19253L10.1936 5.05953L11.3484 6.69247ZM5.74127 2.15301L4.17327 3.80701L5.62471 5.18299L7.19271 3.52899L5.74127 2.15301ZM6.71207 6.21667L8.28207 4.56367L6.83192 3.18633L5.26192 4.83933L6.71207 6.21667ZM8.24522 3.1495L7.15522 2.1155L5.77877 3.5665L6.86877 4.60049L8.24522 3.1495ZM11.6349 7.83394C11.4502 7.65596 11.2638 7.47979 11.0756 7.30547L9.71634 8.77253C9.89488 8.93796 10.0718 9.10515 10.2471 9.27405L11.6349 7.83394ZM9.68872 7.33206L9.68672 7.33406L11.1013 8.74794L11.1033 8.74593L9.68872 7.33206ZM9.687 7.33378L9.684 7.33678L11.098 8.75122L11.101 8.74822L9.687 7.33378ZM9.66482 7.35649C9.6259 7.3976 9.58891 7.4405 9.55399 7.48505L11.128 8.71895C11.1246 8.7233 11.121 8.72749 11.1172 8.73151L9.66482 7.35649ZM9.5431 7.4992C9.3835 7.71045 9.25721 7.94491 9.16863 8.19442L11.0534 8.86358C11.0736 8.80659 11.1024 8.75304 11.1389 8.70479L9.5431 7.4992ZM9.16902 8.19331C9.0136 8.62945 8.94912 9.15865 9.0374 9.76586L11.0166 9.47813C10.9729 9.17734 11.0124 8.97855 11.053 8.86468L9.16902 8.19331ZM9.03745 9.76621C9.20999 10.9502 9.95093 12.3321 11.5436 14.0104L12.9943 12.6336C11.5331 11.0939 11.104 10.0778 11.0165 9.47778L9.03745 9.76621ZM14.082 11.5992C12.7198 10.1655 12.5243 9.42398 12.5007 9.26075L10.5213 9.54724C10.6297 10.296 11.1382 11.4045 12.632 12.9768L14.082 11.5992ZM12.5006 9.26006C12.4951 9.2221 12.4986 9.21774 12.4964 9.24138C12.4953 9.25304 12.493 9.27024 12.488 9.29231C12.483 9.31506 12.476 9.33904 12.4675 9.36348L10.5805 8.70051C10.5119 8.89581 10.4671 9.17434 10.5214 9.54794L12.5006 9.26006ZM12.4456 9.42003L12.4536 9.40103L10.6103 8.62496L10.6023 8.64396L12.4456 9.42003ZM10.6818 8.48648C10.7064 8.44675 10.7347 8.40939 10.7663 8.37488L12.2417 9.72511C12.2942 9.66774 12.3412 9.6056 12.3822 9.53952L10.6818 8.48648ZM10.7481 8.39534C10.7505 8.3925 10.753 8.38971 10.7556 8.38697L12.2164 9.75302C12.2312 9.73718 12.2457 9.72106 12.2599 9.70466L10.7481 8.39534ZM11.486 9.07C11.4859 8.07 11.5842 8.07483 11.6815 8.0893C11.7044 8.09415 11.7635 8.10928 11.7994 8.12039C11.8569 8.13936 11.9012 8.15981 11.9267 8.17233C11.9773 8.19719 12.0147 8.22099 12.0304 8.23118C12.0647 8.25344 12.09 8.27296 12.0978 8.27903C12.1176 8.2943 12.1324 8.307 12.136 8.31008C12.1464 8.31896 12.1541 8.32599 12.1553 8.32705C12.1596 8.33094 12.1616 8.33282 12.1581 8.32956C12.1522 8.32405 12.1371 8.30994 12.1033 8.27808C12.0363 8.21488 11.9011 8.08691 11.6298 7.8291L10.2521 9.2789C10.5238 9.53709 10.6612 9.66711 10.7309 9.73292C10.7655 9.76555 10.7849 9.78369 10.7963 9.79431C10.8015 9.79911 10.8078 9.80503 10.8144 9.81093C10.8167 9.81299 10.825 9.82053 10.8357 9.82967C10.8394 9.83287 10.8543 9.84563 10.8741 9.86094C10.882 9.86701 10.9073 9.88654 10.9416 9.90881C10.9573 9.919 10.9947 9.9428 11.0453 9.96767C11.0708 9.98018 11.1151 10.0006 11.1726 10.0196C11.2085 10.0307 11.2675 10.0458 11.2905 10.0507C11.3878 10.0652 11.4861 10.07 11.486 9.07ZM11.5438 14.0106C13.1278 15.6787 14.4651 16.4904 15.6581 16.685L15.9799 14.711C15.4188 14.6195 14.4562 14.1732 12.9942 12.6334L11.5438 14.0106ZM15.6592 16.6851C16.2844 16.7863 16.8317 16.7095 17.2783 16.5331L16.5437 14.6729C16.4383 14.7145 16.2556 14.7557 15.9788 14.7108L15.6592 16.6851ZM17.2764 16.5338C17.53 16.4343 17.7657 16.2943 17.9744 16.1194L16.6896 14.5866C16.6465 14.6227 16.5979 14.6516 16.5456 14.6722L17.2764 16.5338ZM17.9988 16.0982C18.0245 16.0753 18.0495 16.0516 18.0739 16.0273L16.6621 14.6107C16.6631 14.6097 16.6641 14.6087 16.6651 14.6078L17.9988 16.0982ZM18.0751 16.0261L18.0891 16.0121L16.6749 14.5979L16.6609 14.6119L18.0751 16.0261ZM18.0232 16.0723C18.0321 16.065 18.0407 16.0575 18.0492 16.0501L16.7288 14.5479C16.7326 14.5445 16.7366 14.5411 16.7407 14.5377L18.0232 16.0723ZM18.0961 16.0061L18.0991 16.0031L16.6849 14.5889L16.6819 14.5919L18.0961 16.0061ZM18.2865 15.743L18.2875 15.741L16.4985 14.847L16.4975 14.849L18.2865 15.743ZM17.393 15.294C17.84 16.1885 17.9827 16.1016 18.109 15.9921C18.1484 15.9493 18.248 15.8127 18.3002 15.7147C18.388 15.5252 18.3968 15.3526 18.3919 15.2474C18.383 15.0555 18.3198 14.9164 18.3035 14.8805C18.26 14.7847 18.2104 14.7178 18.2024 14.7068C18.1727 14.6658 18.1461 14.636 18.1418 14.6312C18.1255 14.6128 18.1119 14.5989 18.1092 14.596C18.0999 14.5865 18.0912 14.5779 18.0859 14.5726C18.0734 14.5604 18.0533 14.5409 18.0189 14.5079C17.9493 14.441 17.8122 14.3099 17.5399 14.0511L16.1621 15.5009C16.4338 15.7591 16.5676 15.887 16.633 15.9499C16.6662 15.9817 16.6796 15.9948 16.6838 15.9989C16.6868 16.0018 16.6821 15.9973 16.6749 15.9899C16.6731 15.9881 16.66 15.9746 16.644 15.9565C16.6398 15.9518 16.6132 15.9221 16.5835 15.8812C16.5756 15.8702 16.526 15.8033 16.4825 15.7075C16.4662 15.6716 16.403 15.5325 16.3941 15.3406C16.3892 15.2354 16.3979 15.0628 16.4858 14.8733C16.538 14.7753 16.6376 14.6387 16.677 14.5959C16.8032 14.4864 16.9459 14.3995 17.393 15.294ZM17.5392 14.0505C17.2675 13.7928 17.1334 13.6649 17.0678 13.6019C17.0345 13.57 17.021 13.5568 17.0168 13.5527C17.0138 13.5497 17.0182 13.554 17.0253 13.5613C17.0272 13.5632 17.0393 13.5756 17.0542 13.5923C17.0591 13.5977 17.0813 13.6225 17.1068 13.6564C17.1163 13.669 17.1511 13.7152 17.1863 13.7799C17.2022 13.8092 17.2412 13.8832 17.2701 13.9854C17.2851 14.0382 17.3053 14.1256 17.3077 14.2358C17.3071 14.3008 17.2973 14.4037 17.291 14.4415C17.2559 14.5764 17.2024 14.7052 16.308 14.258C15.4136 13.8108 15.3601 13.9396 15.325 14.0745C15.3187 14.1123 15.3089 14.2151 15.3082 14.2802C15.3107 14.3904 15.3309 14.4778 15.3458 14.5305C15.3748 14.6328 15.4137 14.7068 15.4297 14.7361C15.4649 14.8008 15.4997 14.847 15.5092 14.8596C15.5348 14.8936 15.557 14.9184 15.562 14.924C15.5771 14.9409 15.5898 14.9539 15.5928 14.9569C15.6019 14.9663 15.6105 14.9747 15.6159 14.9801C15.6285 14.9924 15.6487 15.012 15.6832 15.0451C15.7531 15.1121 15.8905 15.2432 16.1628 15.5015L17.5392 14.0505ZM16.7552 15.1524L16.7572 15.1514L15.8628 13.3626L15.8608 13.3636L16.7552 15.1524ZM17.1421 14.8116L17.1441 14.8086L15.4799 13.6994L15.4779 13.7024L17.1421 14.8116ZM17.0086 14.9714C17.0174 14.9629 17.0259 14.9544 17.0344 14.9457L15.5996 13.5523C15.6048 13.547 15.61 13.5418 15.6153 13.5366L17.0086 14.9714ZM17.0241 14.9561L17.0341 14.9461L15.6199 13.5319L15.6099 13.5419L17.0241 14.9561ZM17.0216 14.9583C17.0071 14.9724 16.9917 14.9857 16.9757 14.9981L15.7523 13.4159C15.7105 13.4483 15.6704 13.4829 15.6323 13.5196L17.0216 14.9583ZM16.8785 15.0645C16.8673 15.0712 16.8514 15.0804 16.8315 15.0907C16.8266 15.0933 16.8027 15.1058 16.7709 15.1197C16.7632 15.1231 16.7408 15.1328 16.7113 15.1435C16.6986 15.1481 16.665 15.1601 16.621 15.1715C16.5997 15.177 16.557 15.1874 16.5021 15.1946C16.4725 15.1985 16.3242 15.2197 16.1414 15.1767C16.0437 15.1536 15.8583 15.0945 15.6848 14.931C15.4851 14.7428 15.3798 14.4897 15.3713 14.2369C15.364 14.019 15.4292 13.8546 15.4675 13.774C15.5091 13.6866 15.5548 13.6234 15.5822 13.5883C15.6709 13.4746 15.7664 13.4065 15.7686 13.4049C15.8131 13.3714 15.851 13.349 15.8561 13.3459C15.9334 13.2995 15.9972 13.2761 16.001 13.2747L16.719 15.1413C16.7357 15.1349 16.8066 15.108 16.8851 15.0609C16.8903 15.0577 16.9283 15.0353 16.9728 15.0018C16.975 15.0001 17.0706 14.932 17.1592 14.8183C17.1866 14.7832 17.2323 14.72 17.2739 14.6326C17.3122 14.552 17.3775 14.3876 17.3702 14.1697C17.3617 13.9169 17.2563 13.6638 17.0566 13.4756C16.8831 13.3121 16.6978 13.253 16.6 13.2299C16.4172 13.1869 16.2689 13.208 16.2393 13.212C16.1844 13.2192 16.1417 13.2296 16.1204 13.2351C16.0764 13.2465 16.0428 13.2585 16.0301 13.2631C16.0005 13.2738 15.978 13.2836 15.9702 13.287C15.938 13.3011 15.9134 13.3139 15.9073 13.3171C15.8852 13.3286 15.8657 13.3398 15.8495 13.3495L16.8785 15.0645ZM15.9886 13.2795C16.0163 13.2684 16.0485 13.2573 16.0834 13.2484C16.1165 13.2399 16.1454 13.2351 16.1692 13.2326C16.2171 13.2276 16.2368 13.2326 16.221 13.23L15.899 15.2039C16.2621 15.2632 16.5366 15.2144 16.7314 15.1365L15.9886 13.2795ZM16.222 13.2302C16.1349 13.2159 15.4538 13.0438 14.0821 11.5994L12.6319 12.9766C14.1262 14.5502 15.1811 15.0861 15.898 15.2038L16.222 13.2302ZM11.5525 2.64964C10.2083 0.748644 7.44203 0.362747 5.7426 2.15366L7.19338 3.53033C7.94596 2.73725 9.23572 2.83735 9.9195 3.80435L11.5525 2.64964ZM5.77879 3.56656L6.86479 4.59956L8.2432 3.15043L7.1572 2.11743L5.77879 3.56656ZM8.27866 4.56409C8.32297 4.5175 8.38094 4.49586 8.44633 4.50179C8.50586 4.50718 8.60226 4.53975 8.69415 4.66986L10.3278 3.51614C9.47386 2.30689 7.81217 2.15232 6.82932 3.1859L8.27866 4.56409ZM6.50048 6.62008C6.49741 6.56412 6.5161 6.42209 6.71054 6.21828L5.26345 4.83772C4.79389 5.32991 4.46258 5.98587 4.5035 6.72991L6.50048 6.62008ZM4.17412 3.80611C3.50299 4.5123 2.93796 5.55109 3.00543 6.80953L5.00256 6.70246C4.97202 6.1329 5.22299 5.60569 5.62386 5.18388L4.17412 3.80611ZM19.4816 18.7986C19.3135 18.9758 19.2311 18.9732 19.2549 18.9708L19.4511 20.9612C20.0429 20.9028 20.5425 20.5862 20.9324 20.1754L19.4816 18.7986ZM19.5973 22.4543C20.6547 22.3509 21.4685 21.7901 22.0205 21.2082L20.5695 19.8318C20.2354 20.1839 19.8393 20.4211 19.4027 20.4637L19.5973 22.4543ZM21.9835 19.7948L20.8955 18.7618L19.5185 20.2122L20.6065 21.2452L21.9835 19.7948ZM12.496 9.45873C13.8133 8.07205 13.8814 5.94486 12.8138 4.43315L11.1801 5.58685C11.7326 6.36913 11.6647 7.42994 11.046 8.08127L12.496 9.45873ZM11.4197 4.19344L10.1947 5.05944L11.3493 6.69256L12.5743 5.82656L11.4197 4.19344ZM9.9554 6.45322C10.1167 6.68147 10.0577 6.94339 9.9593 7.04692L11.4087 8.42507C12.2002 7.5926 12.2712 6.26452 11.5886 5.29878L9.9554 6.45322ZM9.99477 8.46055L11.0818 9.49455L12.4602 8.04545L11.3732 7.01145L9.99477 8.46055ZM20.7598 16.5785C20.8789 16.6471 20.9676 16.7755 20.9929 16.9397C21.0188 17.108 20.9674 17.2355 20.9031 17.3031L22.3529 18.6809C23.4247 17.5531 23.1238 15.6323 21.7582 14.8455L20.7598 16.5785ZM20.9391 18.7169L22.0261 19.7499L23.4039 18.3001L22.3169 17.2671L20.9391 18.7169ZM23.4401 19.7137C25.2081 17.8522 24.6782 14.7949 22.5071 13.5445L21.5089 15.2775C22.6018 15.9071 22.8319 17.4498 21.9899 18.3363L23.4401 19.7137ZM18.5756 15.5021C18.6124 15.4633 18.6519 15.4458 18.6897 15.4405C18.727 15.4353 18.7821 15.4395 18.8505 15.4789L19.8475 13.7451C18.9436 13.2253 17.8346 13.3769 17.1244 14.1259L18.5756 15.5021ZM20.2158 15.1107L20.9638 13.8107L19.2302 12.8133L18.4822 14.1133L20.2158 15.1107ZM20.5955 12.4451C19.106 11.5885 17.2377 11.8308 16.0374 13.0928L17.4866 14.4712C18.0363 13.8932 18.89 13.7715 19.5985 14.1789L20.5955 12.4451ZM16.0738 14.5075L17.1618 15.5395L18.5382 14.0885L17.4502 13.0565L16.0738 14.5075Z" fill="#C97900" mask="url(#path-3-inside-1_1_1168)"/>
</svg>
